# 3ds Max Wavefront OBJ Exporter v0.97b - (c)2007 guruware
# File Created: 10.12.2014 02:12:06

mtllib Military Sandbags.mtl

#
# object default
#

v  -2.3629 0.2286 -3.7441
v  -2.6677 0.3670 -3.5645
v  -2.0721 0.3380 -3.5474
v  -3.0153 0.0859 -3.6555
v  -2.2498 0.6903 -2.1976
v  -2.9181 0.7714 -1.9376
v  -2.5088 0.7642 -2.0297
v  -2.0856 1.1322 -0.4804
v  -1.8715 1.0295 -0.6409
v  -1.9619 1.0363 -0.7302
v  -1.7996 1.2594 -0.7068
v  -2.4547 1.0451 -2.1135
v  -2.9747 0.9167 -2.0159
v  -2.8504 1.0906 -1.8354
v  -3.0371 1.0018 -1.1424
v  -2.9154 1.2775 -0.8328
v  -2.8216 0.3989 -0.6226
v  -3.0819 0.3116 -0.5712
v  -2.8960 0.3776 -0.3585
v  -3.0740 0.5500 -0.7810
v  -1.7846 0.8052 -0.2471
v  -1.6202 0.5775 -0.8080
v  -2.0518 0.7312 -0.8375
v  -1.7410 0.7669 0.1616
v  -1.4069 0.5785 0.2512
v  -2.6450 1.3534 -0.5625
v  -1.9806 1.2660 -0.5403
v  -2.5165 1.3809 -0.6771
v  -1.9945 1.3668 -0.6578
v  -2.8006 0.8217 -1.9787
v  -1.8016 0.3486 -1.5894
v  -1.6596 0.2328 -1.2601
v  -1.6156 0.1531 -1.2009
v  -1.5618 0.1359 -0.1615
v  -2.0717 1.3469 -0.9607
v  -2.1683 1.1738 -1.6701
v  -2.0261 0.6625 -2.5357
v  -1.7779 0.5703 -2.2252
v  -2.9485 0.6056 -2.1796
v  -2.8458 0.2323 -2.6880
v  -2.9053 0.3447 -2.4797
v  -3.1173 0.1901 -2.6249
v  -2.2121 0.9050 -0.8910
v  -1.8165 0.8745 -0.7747
v  -2.7458 0.4377 -2.0757
v  -3.0856 0.5609 -2.0880
v  -2.8877 0.9800 -0.7337
v  -2.8085 0.7723 -0.4425
v  -2.9069 1.0637 -0.5751
v  -2.6968 0.1513 -2.6930
v  -1.9449 0.0581 -2.9981
v  -2.1433 0.1354 -2.6811
v  -2.3735 1.1558 -0.4328
v  -2.5213 1.1695 -0.3539
v  -2.3376 1.1571 -0.1042
v  -1.9282 0.1972 -2.7304
v  -1.8658 0.3488 -2.5199
v  -3.0728 0.1525 -1.2963
v  -2.8472 -0.0153 -1.5962
v  -3.0020 0.4914 0.0467
v  -2.9625 0.6873 -0.6270
v  -2.9484 0.6983 0.2114
v  -1.7974 0.0094 -3.6080
v  -3.1338 0.6477 -1.3087
v  -1.8785 0.0646 -0.0974
v  -1.8014 -0.0193 0.0851
v  -2.9061 0.1144 0.1287
v  -3.1026 0.3383 -1.9556
v  -3.0189 0.2669 -1.2737
v  -3.0909 0.1149 -0.5084
v  -1.8352 -0.0342 -0.6795
v  -2.5522 1.1206 0.7796
v  -2.7430 0.7857 0.1044
v  -3.0967 0.4471 -1.5785
v  -2.8552 0.3758 -1.0797
v  -1.8742 0.3484 -1.2228
v  -2.0391 0.3242 -1.3367
v  -1.7394 0.3943 -0.5075
v  -1.7896 0.3266 -0.1207
v  -1.5382 0.2378 -0.1507
v  -1.5836 0.4437 0.2776
v  -2.4068 -0.0349 -3.3223
v  -2.7898 0.0441 -3.0832
v  -2.1425 0.7711 -2.0454
v  -2.0179 0.8996 -2.1755
v  -1.9412 0.8262 -2.1281
v  -2.9113 0.3959 -1.7430
v  -1.8846 -0.0240 -2.1963
v  -1.9717 -0.0298 -1.5986
v  -2.7067 1.1236 0.2089
v  -2.8933 1.2844 0.0514
v  -2.5952 1.1644 -0.0568
v  -2.7387 1.1452 -0.3699
v  -1.8538 0.4331 -0.8611
v  -3.0043 0.7740 -1.6769
v  -2.8365 0.7975 -1.2122
v  -1.9255 0.8213 -1.5305
v  -1.9621 0.4360 -2.0785
v  -1.9036 1.1047 0.0089
v  -2.1288 1.1429 -0.1802
v  -1.7683 1.2858 -0.2179
v  -1.6233 0.6347 -2.2249
v  -2.4012 1.3752 -0.1236
v  -3.0209 0.0275 -0.8408
v  -2.6472 0.8019 -1.0609
v  -2.8687 0.0402 -2.4905
v  -2.7659 0.3367 0.1178
v  -2.7733 0.6661 -2.5056
v  -2.1669 0.7951 -1.0480
v  -1.9397 0.9939 -2.0847
v  -1.6884 0.1361 -2.7221
v  -2.8362 0.0029 -1.0883
v  -2.8086 -0.0364 -0.3825
v  -1.8435 0.9727 -1.3358
v  -1.9494 0.7901 -1.9487
v  -1.9980 0.0401 -1.2652
v  -2.7434 0.3191 -1.3148
v  -2.8539 0.4172 -0.8169
v  -2.0765 1.4086 -0.1599
v  -2.5130 1.4902 0.4489
v  -2.6991 0.8927 -0.8341
v  -1.7599 1.0958 0.3366
v  -1.5030 0.8738 0.6115
v  -2.5131 0.7158 -0.7676
v  -2.5019 0.4437 0.6151
v  -1.6427 0.3261 -2.4658
v  -1.8099 0.1718 -3.0428
v  -1.5069 -0.1059 -2.6585
v  -1.5793 0.5306 -2.6625
v  -1.7484 0.1950 -1.6341
v  -1.4687 0.5111 -1.8278
v  -1.3999 -0.1142 -1.9246
v  -0.8934 0.5886 -1.8731
v  -1.1990 0.2753 -1.6676
v  -0.5964 0.3936 -1.6881
v  -1.1786 0.0450 -1.7283
v  -1.1972 0.6005 -2.8784
v  -1.1847 -0.0294 -2.9020
v  -0.8183 -0.0282 -1.9279
v  -0.7717 0.1608 -1.7056
v  -0.7590 0.5889 -2.6899
v  -0.6190 0.1786 -1.8430
v  -1.0496 -0.1333 -0.6185
v  -1.3447 1.1135 -0.3740
v  -0.9975 0.3178 -0.4866
v  -1.7620 1.1709 0.1195
v  -1.6764 1.1983 -0.5063
v  -1.6075 0.4494 -0.2901
v  -1.4049 1.3362 0.2520
v  -0.8032 0.1562 -0.0159
v  -1.6821 0.9054 0.4256
v  -1.6274 1.3008 0.0340
v  -1.3569 -0.0804 0.0244
v  -1.6348 0.6928 1.9259
v  -1.8343 0.5973 2.0619
v  -1.3238 0.7729 2.2948
v  -1.3280 0.6326 2.6111
v  -2.3545 0.6814 0.5811
v  -2.6192 0.6491 0.6775
v  -2.3318 0.7499 0.7660
v  -2.6707 0.3490 1.1147
v  -2.8464 0.0581 0.5959
v  -2.3883 0.1470 1.3792
v  -1.2698 0.1408 0.8058
v  -1.4358 0.0408 0.9850
v  -2.6082 0.7461 0.4747
v  -2.3192 0.7919 1.1106
v  -2.7726 0.5327 0.7594
v  -2.3095 0.7103 1.7376
v  -1.1020 1.2614 2.5024
v  -0.6090 1.4209 2.5661
v  -1.5153 1.3996 2.0283
v  -1.7171 0.4825 2.2451
v  -0.6251 1.0254 1.7910
v  -0.4403 0.9390 1.6159
v  -0.8687 1.0723 1.4874
v  -0.9692 0.6543 1.0962
v  -1.2959 0.7636 0.7509
v  -1.2902 0.8189 1.0068
v  -2.3054 0.8908 0.9963
v  -2.4132 0.3795 1.3406
v  -2.3639 0.2391 1.5405
v  -2.1562 0.3552 1.4607
v  -2.4667 0.9584 1.2232
v  -1.1239 1.0817 2.3836
v  -0.9607 0.9176 2.5667
v  -0.7836 1.0397 2.4785
v  -0.7588 0.8028 1.5067
v  -0.9831 0.7696 1.3498
v  -1.5214 0.4014 2.1926
v  -1.6491 0.4458 1.7926
v  -1.9814 0.2833 2.0963
v  -1.0758 1.2570 1.1349
v  -0.4067 1.0705 1.7431
v  -1.8938 0.4107 1.8188
v  -1.9652 0.6709 2.0012
v  -1.3859 0.3428 0.9138
v  -1.2702 0.2513 0.6628
v  -1.5170 1.4229 0.7281
v  -1.2325 1.2140 1.0955
v  -1.5503 1.2760 1.4715
v  -1.1476 1.1382 1.2582
v  -1.4625 1.1433 1.3391
v  -1.2792 1.2451 1.2006
v  -1.1051 1.0802 1.3822
v  -2.0325 1.2614 1.8612
v  -1.9923 1.1319 1.7548
v  -1.8903 1.2267 1.8410
v  -2.4042 0.9786 1.0528
v  -2.5626 0.8581 0.9242
v  -1.1265 0.7145 1.3269
v  -2.2406 0.7787 1.4680
v  -1.8185 0.9496 2.0565
v  -1.7966 0.6879 0.3961
v  -1.0197 0.5215 1.0788
v  0.0620 0.5516 1.6125
v  -1.3132 0.3756 0.7752
v  -0.4649 0.1985 1.3867
v  -1.9706 0.7752 1.8262
v  -1.7331 1.3348 1.7049
v  -2.2247 1.4543 1.3835
v  -1.1520 1.4107 1.4314
v  -1.4777 1.0880 1.0150
v  -1.8314 1.1107 1.8920
v  -0.0948 1.2101 2.9500
v  -2.8891 0.2732 0.4214
v  -2.6057 0.3983 0.9371
v  -1.5419 0.7982 0.7811
v  -1.6449 0.8235 0.7083
v  -1.9639 1.3733 1.7517
v  -1.1846 0.1382 2.5973
v  -1.0632 0.3288 2.3525
v  -1.3364 0.2999 2.5084
v  -2.0384 0.0142 1.7915
v  -1.2221 -0.0061 2.1480
v  -1.6303 0.0546 2.3705
v  -0.6790 0.3983 2.7194
v  -0.9414 -0.0188 1.3710
v  -0.5563 0.0917 1.4259
v  -2.1726 0.0896 1.3431
v  -2.3517 1.0708 0.9064
v  -2.2045 1.1010 1.3338
v  -0.5931 0.3183 1.5075
v  -1.0816 0.4667 1.2446
v  -0.9852 0.7063 2.7216
v  -0.1747 1.4389 2.3284
v  -0.3375 0.7782 1.7967
v  -0.9163 0.8062 2.3432
v  -1.7791 1.4917 1.3386
v  -1.7099 1.0524 0.6980
v  -0.3766 1.2794 1.5719
v  -0.3070 1.4595 1.8252
v  -0.8197 0.0094 2.5717
v  -2.2731 1.0080 0.9768
v  -1.3193 -0.1035 2.7402
v  -1.8878 0.1632 1.9267
v  -0.8867 0.1316 2.8920
v  -1.4337 0.5175 3.1570
v  -1.1779 0.4259 2.7856
v  -1.8968 0.4670 2.2079
v  -2.0301 -0.0902 2.2689
v  -2.2939 0.2335 2.3452
v  -2.4842 0.0173 2.5744
v  -2.3168 0.6003 2.6649
v  -2.5625 0.4409 2.5442
v  -2.7471 0.2736 2.7111
v  -2.7821 0.9402 0.6498
v  -2.8263 0.1677 0.8770
v  -3.1524 0.5426 0.6493
v  -2.1709 0.7499 1.4670
v  -2.1885 0.3956 1.7251
v  -2.4837 -0.0684 2.0901
v  -2.1695 0.8157 1.8516
v  -2.4616 0.6543 2.0509
v  -2.1462 0.9894 1.6823
v  -2.7987 1.0899 0.8819
v  -2.3233 1.0772 1.8264
v  -2.7785 0.2779 1.9850
v  -3.2979 0.2814 1.1333
v  -3.3044 0.0127 0.8541
v  -3.0475 0.9717 1.0311
v  -2.4587 0.0158 1.6230
v  -3.2491 0.7138 0.7872
v  -2.9338 0.9689 0.6456
v  -3.0837 0.0670 0.8111
v  -1.4797 1.2299 0.5277
v  -1.1391 -0.0849 0.5066
v  -1.1293 -0.1963 0.1721
v  -0.8347 -0.0317 0.2588
v  -1.4198 0.8923 0.6431
v  -1.0262 -0.0239 0.5710
v  -0.8916 0.2361 0.4829
v  -0.2526 -0.0184 1.8003
v  0.4345 0.1498 1.7944
v  0.0440 0.0489 2.8570
v  0.3353 0.1506 2.8806
v  2.7943 0.4411 1.8200
v  2.7033 0.4063 3.0627
v  2.7303 0.4074 1.8490
v  1.6511 0.5157 1.8460
v  2.0969 0.3538 1.9978
v  1.7299 0.3498 2.0776
v  1.8735 0.1436 1.7774
v  0.3793 0.2027 3.1394
v  0.4629 0.3183 3.0779
v  1.2215 0.2586 3.2239
v  2.4503 0.3232 2.8138
v  2.6656 0.3726 3.0053
v  2.0457 0.3615 2.7966
v  1.6994 0.3148 2.8466
v  1.7436 0.6720 2.7179
v  0.9650 0.8948 2.4163
v  1.2333 0.8234 2.8466
v  1.2979 0.8422 2.1621
v  0.3868 0.8231 2.9508
v  -0.6783 0.7593 2.6020
v  -0.1597 0.7778 2.8068
v  0.3478 0.6704 3.1819
v  1.7133 0.6568 1.9579
v  1.0949 0.6749 1.7244
v  1.1999 0.5477 1.8048
v  0.3571 0.3949 1.8880
v  -0.2368 1.0895 2.7317
v  -0.0675 1.1378 2.6119
v  1.0842 0.6134 3.1807
v  0.8111 0.8048 2.9439
v  1.7422 0.1462 3.1913
v  3.2129 0.0834 1.8379
v  2.8970 0.3053 2.0653
v  0.4757 0.3643 2.7698
v  0.1751 0.2916 3.0848
v  -0.0639 0.1171 3.0716
v  2.3202 0.6292 2.8716
v  1.5492 0.5761 2.9891
v  0.6049 0.0219 2.8878
v  0.9147 0.4213 2.9349
v  -0.4445 0.5636 2.9332
v  1.1295 0.6735 1.8577
v  0.7850 0.8250 1.9272
v  0.6357 0.0172 2.0343
v  1.1119 -0.0104 1.8785
v  0.4029 0.8320 1.8613
v  -0.2523 0.3534 3.0626
v  -0.1913 0.4377 2.8162
v  1.0704 0.7515 2.8777
v  1.1152 0.6404 2.8798
v  -0.3846 0.9571 2.8125
v  0.4416 1.1247 2.7686
v  0.1191 0.7833 1.8835
v  -0.1344 0.6952 1.9848
v  0.2921 0.9577 1.8135
v  0.9540 0.8350 2.1862
v  1.4922 0.4222 2.6232
v  2.6960 0.5777 2.4822
v  1.1127 0.4675 2.6876
v  -0.3580 0.6941 2.5980
v  1.8058 0.1772 2.9220
v  0.8770 1.0703 1.9847
v  1.0346 0.9736 1.8217
v  0.5408 1.1716 2.1099
v  0.4592 0.4765 3.1409
v  1.2678 0.4360 2.1119
v  1.0072 0.4208 1.9982
v  1.2026 0.5251 2.0482
v  0.6163 0.3923 1.9874
v  1.6588 0.0335 1.8941
v  0.9447 0.8997 3.0490
v  0.9127 0.8074 2.6823
v  1.6078 0.0064 2.9498
v  0.9111 1.0750 2.4579
v  1.8765 -0.0648 2.2052
v  1.6964 0.0494 2.7646
v  2.9807 -0.0582 2.0269
v  0.0012 0.4793 1.8127
v  0.3528 0.3247 1.7407
v  1.0201 0.4251 2.6484
v  -0.0666 0.4416 1.6958
v  1.1561 0.7816 1.8081
v  -0.0610 1.1007 1.8579
v  1.0556 0.4297 2.1797
v  0.1976 1.2844 1.7419
v  2.6363 0.3414 2.6945
v  2.6092 0.3432 2.0735
v  -0.9574 0.2877 2.7872
v  0.0625 1.1549 2.0793
v  2.3449 0.6579 2.0139
v  3.1725 0.2402 2.9138
v  0.4449 0.2261 1.6408
v  0.2084 0.2102 1.6883
v  1.6194 0.3767 2.4882
v  2.7961 0.0005 2.9195
v  0.8055 0.5653 0.8469
v  1.7340 0.6635 0.8479
v  1.5746 0.4147 0.7288
v  2.0217 0.6139 1.2195
v  2.0722 0.3403 0.5068
v  0.9761 -0.0168 1.0553
v  0.8889 0.3208 1.8846
v  0.6902 0.3534 0.7547
v  0.7873 0.3612 1.2643
v  2.2477 0.2211 1.7096
v  1.8846 0.5336 1.6571
v  1.0306 0.5668 1.6932
v  1.0223 0.0483 1.6706
v  1.8072 -0.0349 1.5505
v  1.7055 -0.0199 0.8470
v  2.0508 0.0212 1.1088
v  -0.5757 0.3046 -3.0806
v  -0.7262 0.0174 -2.6741
v  3.3002 0.0595 1.9503
v  3.1145 0.0765 3.0006
v  3.2384 -0.0379 2.4069
v  3.2527 0.1325 2.8281
v  2.9252 0.3096 2.8390
v  -2.4483 -0.0153 2.7495
v  -1.5096 -0.1107 3.2162
v  -1.8010 0.3020 3.7452
v  -1.8575 0.5498 3.4033
v  -1.9324 -0.0656 3.2765
v  -2.0933 0.1488 3.2222
# 420 vertices

vn 0.0608 0.3986 -0.9151
vn -0.1822 0.8403 -0.5106
vn 0.3259 0.8334 -0.4463
vn -0.7829 -0.3995 -0.4769
vn -0.0141 0.9123 -0.4093
vn -0.6261 0.3310 -0.7059
vn -0.1844 -0.0825 -0.9794
vn 0.4436 0.7674 0.4629
vn 0.6763 0.6525 -0.3417
vn 0.8416 -0.5339 0.0811
vn 0.9008 0.2411 0.3611
vn -0.0695 0.7467 -0.6615
vn -0.6899 -0.0267 -0.7234
vn -0.2383 0.9299 -0.2800
vn -0.9861 -0.1235 0.1114
vn -0.6775 0.7347 0.0347
vn -0.9947 0.0951 -0.0386
vn -0.6893 0.7187 0.0905
vn -0.9677 -0.2486 0.0417
vn -0.8400 -0.5378 0.0713
vn 0.9204 0.3432 -0.1870
vn 0.9958 -0.0622 -0.0661
vn 0.6549 0.6792 -0.3312
vn 0.9951 0.0713 0.0675
vn 0.9271 0.1457 -0.3454
vn -0.1548 0.8112 0.5639
vn 0.3028 0.6007 0.7399
vn -0.0614 0.9945 0.0847
vn 0.2726 0.9261 0.2606
vn -0.1917 -0.5082 -0.8396
vn 0.9975 0.0221 -0.0675
vn 0.7223 0.6697 -0.1723
vn 0.8412 -0.5366 -0.0667
vn 0.7597 -0.6307 -0.1582
vn 0.3041 0.9276 -0.2169
vn 0.0623 0.9603 -0.2718
vn 0.2250 0.9629 -0.1491
vn 0.9322 0.0854 -0.3517
vn -0.8586 0.3872 -0.3360
vn -0.8969 -0.3165 -0.3088
vn -0.7139 0.6631 -0.2249
vn -0.7880 -0.2741 -0.5512
vn 0.8558 -0.0764 -0.5116
vn 0.7448 0.0587 -0.6647
vn -0.9303 -0.1437 -0.3375
vn -0.8340 -0.3113 -0.4554
vn -0.6243 -0.7655 0.1557
vn -0.9769 0.1146 -0.1803
vn -0.9582 0.1214 0.2590
vn -0.1495 -0.9762 -0.1571
vn 0.3216 -0.9034 0.2834
vn 0.0426 -0.9633 -0.2649
vn 0.1580 0.9565 0.2452
vn 0.0470 0.9650 0.2578
vn -0.1057 0.8114 -0.5748
vn 0.6000 -0.6818 -0.4184
vn 0.9933 -0.0747 0.0880
vn -0.8345 -0.5502 -0.0288
vn -0.2247 -0.9703 0.0893
vn -0.8798 -0.4302 0.2020
vn -0.5467 0.8344 0.0696
vn -0.6297 0.7478 0.2104
vn 0.6609 -0.6375 -0.3959
vn -0.9033 0.4290 -0.0066
vn 0.0643 -0.9971 -0.0393
vn 0.1202 -0.9745 -0.1897
vn -0.8476 -0.5227 0.0916
vn -0.6479 0.7617 0.0072
vn -0.6722 0.7403 0.0022
vn -0.9420 -0.3257 0.0811
vn 0.2076 -0.9781 -0.0141
vn -0.8971 -0.1310 0.4220
vn -0.9397 0.2606 0.2215
vn -0.6665 -0.7453 -0.0135
vn -0.9955 -0.0008 -0.0944
vn 0.8532 -0.4682 -0.2297
vn 0.6172 0.7203 -0.3164
vn 0.9910 0.0379 -0.1281
vn 0.9783 0.1048 -0.1784
vn 0.8736 0.4364 -0.2155
vn 0.8800 0.1695 -0.4436
vn -0.0328 -0.9959 0.0842
vn -0.3589 -0.9071 0.2197
vn 0.0519 0.1226 -0.9911
vn 0.0538 -0.1985 -0.9786
vn 0.7733 -0.4816 -0.4124
vn -0.9954 0.0393 -0.0876
vn 0.1674 -0.9789 -0.1173
vn 0.1588 -0.9803 0.1176
vn -0.9947 0.0583 0.0841
vn -0.9942 0.0932 -0.0531
vn -0.3995 0.6216 -0.6737
vn -0.3629 0.8993 0.2438
vn 0.9792 0.0093 -0.2025
vn -0.9785 -0.2059 -0.0125
vn -0.8094 0.4373 0.3920
vn 0.9604 0.1865 0.2068
vn 0.7804 -0.6078 -0.1466
vn 0.7266 0.5470 -0.4158
vn 0.0343 0.6423 -0.7657
vn 0.5343 -0.1571 -0.8305
vn 0.6738 0.3318 -0.6602
vn -0.2617 0.3160 -0.9119
vn -0.5138 -0.8566 -0.0465
vn -0.8819 -0.3520 0.3136
vn -0.1448 -0.9380 -0.3150
vn -0.9239 0.3118 0.2217
vn -0.2284 0.9562 -0.1827
vn 0.8001 0.5783 0.1593
vn 0.5858 0.6625 -0.4668
vn 0.7549 -0.0408 -0.6546
vn -0.1349 -0.9709 -0.1977
vn -0.2018 -0.9734 0.1077
vn 0.9962 -0.0769 -0.0392
vn 0.8776 0.2905 -0.3814
vn 0.0665 -0.9978 -0.0027
vn -0.9955 0.0020 -0.0951
vn -0.9958 0.0388 0.0820
vn 0.0483 0.8963 -0.4407
vn -0.1609 0.9854 -0.0553
vn -0.7378 -0.6614 -0.1346
vn 0.9406 -0.1779 -0.2892
vn 0.8485 -0.4538 -0.2722
vn -0.4196 0.8953 -0.1497
vn -0.9377 -0.3087 0.1596
vn -0.9976 -0.0046 0.0691
vn -0.7278 -0.0451 -0.6843
vn -0.5881 -0.8064 -0.0620
vn -0.7120 0.6995 -0.0607
vn -0.7964 -0.1295 0.5907
vn -0.2381 0.8692 0.4333
vn -0.0508 -0.9619 0.2686
vn 0.0691 0.9134 0.4011
vn 0.0103 0.2653 0.9641
vn 0.6225 0.2405 0.7447
vn 0.0654 -0.5150 0.8546
vn -0.0957 0.9392 -0.3298
vn 0.1172 -0.9286 -0.3520
vn 0.3270 -0.9007 0.2858
vn 0.3517 -0.5585 0.7512
vn 0.4370 0.8916 -0.1184
vn 0.8016 -0.5438 0.2483
vn 0.2586 -0.5593 -0.7876
vn 0.6422 0.5301 -0.5536
vn 0.7763 0.2501 -0.5786
vn -0.9317 0.3333 0.1443
vn -0.4313 0.6660 -0.6086
vn -0.9217 -0.3284 -0.2065
vn 0.5277 0.8487 0.0342
vn 0.9781 0.1777 -0.1083
vn -0.8720 -0.1481 0.4664
vn -0.4376 0.8963 0.0714
vn -0.7508 -0.6569 0.0680
vn -0.2173 0.6797 0.7005
vn -0.6453 0.1703 0.7447
vn -0.5703 0.2435 0.7845
vn -0.5413 0.1971 0.8174
vn -0.4532 0.7978 0.3977
vn -0.3310 0.9303 0.1579
vn -0.9153 -0.2550 0.3118
vn -0.8332 0.3380 0.4376
vn -0.5632 -0.7980 0.2144
vn -0.5900 -0.7403 0.3222
vn 0.7779 -0.5276 -0.3413
vn 0.0579 -0.9943 -0.0897
vn -0.7388 0.1082 0.6652
vn -0.8615 0.5076 -0.0102
vn -0.9521 0.0581 0.3002
vn -0.7735 0.3155 0.5496
vn -0.5025 0.3249 0.8012
vn -0.1365 0.8950 0.4247
vn -0.3604 0.8628 0.3545
vn -0.5227 -0.7472 0.4104
vn 0.1439 0.5486 -0.8236
vn 0.3545 0.3099 -0.8822
vn 0.5652 0.2947 -0.7705
vn 0.4780 0.7323 -0.4850
vn 0.3332 0.9167 -0.2205
vn 0.7402 0.2162 -0.6366
vn -0.7465 -0.6496 0.1437
vn -0.6995 0.1611 0.6962
vn -0.7533 0.3135 0.5781
vn -0.5501 0.4715 0.6892
vn -0.9647 0.1589 0.2098
vn -0.4137 0.2379 0.8788
vn -0.4328 -0.0992 0.8960
vn -0.3560 0.2103 0.9105
vn 0.5776 0.1799 -0.7963
vn 0.3743 0.1340 -0.9175
vn -0.5948 0.4631 0.6570
vn -0.6924 -0.3435 0.6344
vn -0.5867 0.4703 0.6592
vn 0.2157 -0.1997 -0.9558
vn 0.2561 -0.4688 -0.8453
vn -0.5987 -0.1747 0.7816
vn -0.3695 0.3758 0.8498
vn 0.9801 -0.0703 -0.1855
vn 0.9641 0.2634 -0.0328
vn 0.4083 0.9079 -0.0945
vn 0.9204 -0.3706 -0.1240
vn -0.0380 0.9079 -0.4174
vn -0.1492 -0.5242 -0.8384
vn 0.8655 -0.3122 -0.3916
vn 0.8141 0.3168 0.4867
vn 0.3999 -0.2778 -0.8734
vn -0.5822 0.0595 0.8108
vn -0.6987 -0.0736 0.7116
vn -0.3795 0.2578 0.8885
vn -0.5358 0.5408 0.6483
vn -0.6334 -0.5420 0.5522
vn 0.4039 0.7031 -0.5851
vn -0.8332 0.3798 0.4017
vn -0.6351 0.0813 0.7681
vn 0.9990 0.0437 -0.0073
vn 0.5223 -0.7170 -0.4615
vn 0.3474 0.1155 -0.9306
vn 0.8633 -0.4771 -0.1646
vn 0.4332 0.1721 -0.8847
vn -0.6140 0.2182 0.7585
vn -0.0653 0.9778 0.1989
vn -0.4758 0.8166 0.3267
vn -0.1371 0.9596 -0.2455
vn 0.9585 -0.2419 -0.1510
vn -0.5835 -0.1392 0.8000
vn 0.0049 -0.1920 0.9814
vn -0.7903 0.6106 0.0508
vn -0.9083 0.3483 0.2315
vn 0.6373 0.1447 -0.7568
vn 0.5720 0.6004 -0.5589
vn 0.1469 0.9079 0.3926
vn -0.3410 -0.4497 0.8255
vn -0.4016 0.5288 0.7477
vn -0.1427 0.7262 0.6724
vn -0.3833 -0.9040 0.1891
vn 0.1183 -0.9796 0.1627
vn -0.4081 -0.6967 0.5900
vn -0.4521 -0.0174 0.8918
vn 0.1789 -0.9415 -0.2856
vn 0.1497 -0.9374 -0.3142
vn -0.1626 -0.9864 0.0240
vn -0.5591 0.0821 0.8250
vn -0.9008 -0.2527 0.3529
vn 0.3875 -0.2882 -0.8757
vn 0.6436 -0.1733 -0.7454
vn -0.1731 0.8450 0.5060
vn 0.3251 0.9390 0.1119
vn 0.4553 -0.2114 -0.8648
vn -0.4624 0.1603 0.8720
vn 0.1917 0.9677 0.1634
vn 0.7435 0.5332 -0.4036
vn 0.4121 0.0864 -0.9070
vn 0.1926 0.9194 -0.3429
vn -0.1703 -0.9768 0.1295
vn -0.4795 0.8251 0.2987
vn 0.3435 -0.9052 -0.2501
vn 0.0574 -0.1290 -0.9900
vn 0.9859 -0.1050 0.1299
vn 0.3727 0.9058 0.2015
vn 0.5592 0.7633 -0.3234
vn 0.0441 0.8868 -0.4599
vn -0.2753 -0.8832 -0.3796
vn -0.6520 -0.2698 -0.7086
vn -0.6280 -0.6281 -0.4594
vn -0.2570 0.9662 -0.0195
vn -0.6435 0.4622 -0.6100
vn -0.9949 -0.0002 0.1004
vn 0.5342 0.2756 -0.7992
vn 0.6026 -0.4311 -0.6715
vn -0.1590 -0.1157 -0.9805
vn 0.8939 -0.0863 -0.4400
vn 0.9469 -0.3083 -0.0912
vn 0.1579 -0.6518 0.7418
vn 0.7761 0.1243 0.6182
vn -0.0037 0.2767 0.9609
vn 0.8816 0.4629 -0.0917
vn 0.0635 0.9683 -0.2416
vn -0.0633 0.8214 0.5667
vn -0.7169 0.2068 0.6658
vn -0.9256 -0.0365 0.3766
vn -0.6058 -0.6950 -0.3872
vn -0.7014 0.6785 0.2180
vn 0.5124 -0.8128 -0.2771
vn -0.8980 0.3320 -0.2888
vn -0.3807 0.6571 -0.6505
vn 0.2419 -0.6789 -0.6932
vn -0.2203 0.7005 0.6787
vn -0.3451 -0.7349 0.5838
vn -0.0189 -0.9926 0.1198
vn 0.7590 -0.6208 0.1961
vn -0.1463 0.0207 0.9890
vn 0.3847 -0.4167 0.8236
vn 0.8357 0.2134 0.5061
vn 0.0696 -0.9893 -0.1285
vn 0.0310 -0.8479 -0.5291
vn 0.1670 -0.9731 0.1588
vn -0.2714 -0.8543 0.4432
vn 0.7371 0.1856 -0.6497
vn 0.8206 -0.3534 0.4492
vn 0.2700 -0.9102 -0.3140
vn -0.0509 -0.2102 -0.9763
vn -0.0334 -0.0857 -0.9958
vn -0.0614 0.3136 -0.9476
vn 0.0704 0.3077 -0.9489
vn -0.3850 -0.4937 0.7797
vn -0.4532 0.8150 0.3611
vn 0.0676 0.7414 0.6677
vn 0.0201 0.3896 0.9208
vn 0.0840 -0.9377 0.3372
vn -0.2245 -0.6229 0.7494
vn 0.2214 0.8651 0.4500
vn 0.1885 0.9748 0.1194
vn 0.6503 0.7488 0.1278
vn 0.0800 0.8665 0.4928
vn 0.1683 0.9521 -0.2552
vn -0.1807 0.3227 0.9291
vn -0.2914 0.2520 0.9228
vn -0.3853 0.6990 0.6025
vn -0.1292 0.5366 0.8339
vn 0.1051 0.8859 -0.4517
vn 0.3938 0.4512 -0.8008
vn 0.6186 -0.6509 -0.4400
vn 0.1844 -0.4091 -0.8937
vn -0.1006 0.2272 0.9686
vn 0.8377 0.4505 0.3087
vn 0.6536 0.2222 0.7234
vn 0.3939 0.3577 0.8467
vn 0.6363 -0.3830 0.6696
vn 0.2846 -0.2943 -0.9123
vn 0.2436 0.8893 -0.3869
vn -0.0374 0.5415 0.8398
vn 0.4008 0.0717 0.9134
vn -0.0128 -0.6734 0.7391
vn 0.1368 0.9349 0.3275
vn -0.1223 -0.1132 0.9860
vn -0.2040 -0.9638 0.1714
vn 0.4177 0.0994 0.9031
vn -0.3035 0.1715 0.9372
vn 0.1639 0.3333 -0.9284
vn 0.5412 0.4457 -0.7130
vn -0.3015 -0.9474 -0.1071
vn -0.0306 -0.9447 -0.3264
vn 0.0088 0.1984 -0.9801
vn -0.1621 0.5646 0.8092
vn -0.1617 -0.3070 0.9379
vn 0.0146 0.7521 0.6588
vn 0.4734 -0.4767 0.7406
vn -0.2639 0.3211 0.9095
vn 0.0265 0.9364 0.3498
vn -0.1101 -0.0713 -0.9914
vn 0.0747 0.5528 -0.8300
vn 0.1084 -0.1737 -0.9788
vn 0.3338 0.7262 -0.6010
vn 0.0526 -0.1346 0.9895
vn 0.4254 0.9035 0.0522
vn 0.4562 -0.7763 0.4349
vn -0.3497 0.5883 0.7291
vn 0.2598 0.0797 0.9623
vn 0.3024 0.9377 -0.1709
vn 0.6459 0.1899 -0.7394
vn 0.1010 0.9805 -0.1685
vn -0.0691 -0.7613 0.6446
vn -0.4020 -0.3489 -0.8465
vn 0.2204 0.7081 -0.6708
vn 0.2332 -0.8337 -0.5005
vn 0.2508 0.3316 -0.9095
vn 0.0162 -0.9425 -0.3337
vn 0.6235 -0.0356 0.7810
vn 0.6621 0.5888 0.4635
vn 0.1803 -0.9603 0.2130
vn 0.5875 0.8047 0.0857
vn -0.1406 -0.9901 0.0018
vn 0.2105 -0.9552 0.2080
vn 0.0896 -0.9710 -0.2215
vn 0.6182 0.0042 -0.7859
vn 0.2148 0.5629 -0.7981
vn 0.3630 -0.5636 0.7419
vn 0.5242 0.1999 -0.8278
vn -0.2410 0.5886 -0.7716
vn 0.2817 0.4300 -0.8577
vn 0.3939 -0.7673 -0.5060
vn 0.8942 -0.0898 -0.4385
vn 0.9512 -0.2795 -0.1305
vn 0.5755 0.6297 -0.5218
vn -0.5110 0.6639 0.5460
vn 0.6256 0.7801 -0.0098
vn 0.1327 0.9277 -0.3489
vn 0.3858 0.8626 0.3272
vn -0.1961 0.1570 -0.9679
vn 0.4067 -0.0863 -0.9095
vn 0.1312 0.8958 0.4246
vn -0.0200 -0.9294 0.3686
vn -0.3745 0.7674 -0.5204
vn 0.0215 0.9033 -0.4284
vn -0.1784 0.1790 -0.9675
vn 0.4623 0.8847 0.0601
vn 0.6178 0.0697 -0.7832
vn -0.4664 -0.8809 -0.0802
vn -0.7093 0.0385 0.7038
vn -0.8906 0.0567 -0.4512
vn -0.8423 0.5142 0.1614
vn 0.7328 -0.2302 0.6403
vn 0.2348 0.7390 0.6314
vn -0.4109 0.8663 0.2840
vn -0.2448 -0.8025 0.5441
vn 0.1240 -0.9686 0.2152
vn -0.0159 -0.8126 -0.5826
vn 0.5286 -0.8383 -0.1335
vn 0.7600 -0.0222 -0.6495
vn 0.5538 -0.8220 -0.1329
vn 0.9727 0.0674 -0.2217
vn 0.4049 -0.4611 0.7895
vn 0.4660 -0.8783 0.1064
vn 0.9510 -0.0970 0.2935
vn 0.1564 0.9808 0.1166
vn -0.4703 -0.8527 0.2274
vn 0.1369 -0.9514 0.2756
vn -0.0166 -0.0219 0.9996
vn -0.4043 0.7410 0.5361
vn -0.4386 -0.7350 0.5171
vn -0.7456 -0.2040 0.6344
# 420 vertex normals

vt 0.1063 0.4375 0.0000
vt 0.1293 0.4087 0.0000
vt 0.1299 0.4614 0.0000
vt 0.0912 0.3730 0.0000
vt 0.2472 0.4414 0.0000
vt 0.2800 0.3804 0.0000
vt 0.2729 0.4165 0.0000
vt 0.0765 0.6387 0.0000
vt 0.0560 0.6558 0.0000
vt 0.0519 0.6460 0.0000
vt 0.7085 0.7714 0.0000
vt 0.7339 0.7684 0.0000
vt 0.7422 0.8013 0.0000
vt 0.7769 0.6521 0.0000
vt 0.8311 0.6458 0.0000
vt 0.8154 0.6702 0.0000
vt 0.8540 0.7131 0.0000
vt 0.8286 0.7476 0.0000
vt 0.2008 0.2715 0.0000
vt 0.2050 0.2437 0.0000
vt 0.2219 0.2617 0.0000
vt 0.3591 0.3369 0.0000
vt 0.3665 0.3027 0.0000
vt 0.3877 0.3047 0.0000
vt 0.4216 0.4692 0.0000
vt 0.3684 0.5088 0.0000
vt 0.3699 0.4570 0.0000
vt 0.4558 0.4653 0.0000
vt 0.4719 0.5032 0.0000
vt 0.8071 0.7705 0.0000
vt 0.7871 0.7665 0.0000
vt 0.7476 0.7834 0.0000
vt 0.8311 0.6228 0.0000
vt 0.7866 0.6150 0.0000
vt 0.8271 0.6150 0.0000
vt 0.1428 0.0278 0.0000
vt 0.1713 0.0498 0.0000
vt 0.1735 0.0635 0.0000
vt 0.2698 0.0762 0.0000
vt 0.7554 0.7498 0.0000
vt 0.7544 0.6909 0.0000
vt 0.2196 0.4634 0.0000
vt 0.2395 0.4946 0.0000
vt 0.2423 0.3677 0.0000
vt 0.1744 0.3384 0.0000
vt 0.2000 0.3467 0.0000
vt 0.0253 0.2271 0.0000
vt 0.0428 0.2041 0.0000
vt 0.0463 0.2393 0.0000
vt 0.0242 0.6277 0.0000
vt 0.0334 0.6631 0.0000
vt 0.2056 0.6028 0.0000
vt 0.2162 0.5796 0.0000
vt 0.2520 0.6125 0.0000
vt 0.2365 0.3291 0.0000
vt 0.2583 0.3540 0.0000
vt 0.0801 0.5532 0.0000
vt 0.1051 0.5278 0.0000
vt 0.0887 0.5674 0.0000
vt 0.0003 0.4126 0.0000
vt 0.0313 0.4839 0.0000
vt 0.0031 0.4658 0.0000
vt 0.0877 0.6160 0.0000
vt 0.0964 0.6050 0.0000
vt 0.1103 0.6233 0.0000
vt 0.1721 0.5244 0.0000
vt 0.1431 0.5300 0.0000
vt 0.2004 0.5122 0.0000
vt 0.1494 0.2144 0.0000
vt 0.1273 0.1802 0.0000
vt 0.4153 0.3276 0.0000
vt 0.3760 0.3618 0.0000
vt 0.4312 0.3540 0.0000
vt 0.0909 0.5005 0.0000
vt 0.3203 0.3506 0.0000
vt 0.2673 0.1128 0.0000
vt 0.2878 0.1099 0.0000
vt 0.2612 0.2158 0.0000
vt 0.0921 0.2334 0.0000
vt 0.1503 0.2354 0.0000
vt 0.2108 0.2192 0.0000
vt 0.2162 0.0972 0.0000
vt 0.1780 0.5955 0.0000
vt 0.1412 0.5364 0.0000
vt 0.2925 0.3281 0.0000
vt 0.3286 0.2993 0.0000
vt 0.7524 0.7716 0.0000
vt 0.2959 0.5413 0.0000
vt 0.3254 0.5488 0.0000
vt 0.1661 0.0117 0.0000
vt 0.3918 0.5408 0.0000
vt 0.4277 0.5525 0.0000
vt 0.2720 0.0586 0.0000
vt 0.2715 0.0313 0.0000
vt 0.3123 0.0308 0.0000
vt 0.2369 0.3359 0.0000
vt 0.0784 0.2681 0.0000
vt 0.4661 0.5327 0.0000
vt 0.8696 0.7444 0.0000
vt 0.8574 0.7651 0.0000
vt 0.0556 0.4385 0.0000
vt 0.0358 0.4019 0.0000
vt 0.1982 0.6321 0.0000
vt 0.7500 0.6152 0.0000
vt 0.7222 0.6343 0.0000
vt 0.7295 0.6230 0.0000
vt 0.1079 0.2534 0.0000
vt 0.8511 0.6355 0.0000
vt 0.0908 0.0884 0.0000
vt 0.1351 0.0996 0.0000
vt 0.2961 0.8123 0.0000
vt 0.2930 0.7832 0.0000
vt 0.3186 0.8063 0.0000
vt 0.0992 0.5867 0.0000
vt 0.1379 0.5894 0.0000
vt 0.1182 0.6008 0.0000
vt 0.2375 0.0317 0.0000
vt 0.3577 0.5444 0.0000
vt 0.2078 0.0190 0.0000
vt 0.1779 0.0239 0.0000
vt 0.8647 0.6616 0.0000
vt 0.8843 0.6982 0.0000
vt 0.0082 0.6497 0.0000
vt 0.3145 0.4658 0.0000
vt 0.0692 0.0205 0.0000
vt 0.1052 0.0054 0.0000
vt 0.1088 0.6633 0.0000
vt 0.1000 0.6406 0.0000
vt 0.4111 0.7789 0.0000
vt 0.4492 0.7490 0.0000
vt 0.4595 0.7715 0.0000
vt 0.2467 0.5322 0.0000
vt 0.2544 0.4956 0.0000
vt 0.3679 0.8134 0.0000
vt 0.3430 0.7850 0.0000
vt 0.3447 0.8121 0.0000
vt 0.2712 0.3164 0.0000
vt 0.1890 0.2026 0.0000
vt 0.2749 0.4482 0.0000
vt 0.9019 0.7122 0.0000
vt 0.0363 0.1587 0.0000
vt 0.0592 0.1743 0.0000
vt 0.2605 0.2539 0.0000
vt 0.1632 0.2612 0.0000
vt 0.2203 0.3931 0.0000
vt 0.6655 0.7375 0.0000
vt 0.6875 0.6965 0.0000
vt 0.6733 0.7573 0.0000
vt 0.3533 0.4448 0.0000
vt 0.7280 0.6536 0.0000
vt 0.0413 0.1030 0.0000
vt 0.0511 0.0591 0.0000
vt 0.1724 0.1841 0.0000
vt 0.2245 0.1899 0.0000
vt 0.7065 0.7139 0.0000
vt 0.7012 0.6453 0.0000
vt 0.2839 0.4648 0.0000
vt 0.0026 0.4883 0.0000
vt 0.1664 0.1045 0.0000
vt 0.6904 0.6587 0.0000
vt 0.1425 0.2617 0.0000
vt 0.3037 0.2881 0.0000
vt 0.1841 0.2695 0.0000
vt 0.0372 0.0801 0.0000
vt 0.3721 0.7784 0.0000
vt 0.3208 0.7451 0.0000
vt 0.2991 0.3730 0.0000
vt 0.0054 0.6296 0.0000
vt 0.1329 0.3306 0.0000
vt 0.6797 0.6418 0.0000
vt 0.3928 0.3789 0.0000
vt 0.3359 0.3843 0.0000
vt 0.3154 0.5645 0.0000
vt 0.3530 0.3062 0.0000
vt 0.0075 0.2261 0.0000
vt 0.8921 0.7334 0.0000
vt 0.2369 0.5234 0.0000
vt 0.3000 0.5662 0.0000
vt 0.0705 0.5332 0.0000
vt 0.0593 0.5166 0.0000
vt 0.2700 0.5623 0.0000
vt 0.4443 0.7188 0.0000
vt 0.3320 0.5999 0.0000
vt 0.2869 0.6184 0.0000
vt 0.8335 0.7875 0.0000
vt 0.4312 0.3774 0.0000
vt 0.4229 0.2979 0.0000
vt 0.8071 0.8021 0.0000
vt 0.7832 0.8085 0.0000
vt 0.1667 0.3213 0.0000
vt 0.0806 0.5017 0.0000
vt 0.3728 0.4072 0.0000
vt 0.0412 0.0313 0.0000
vt 0.4641 0.3037 0.0000
vt 0.3491 0.3994 0.0000
vt 0.1299 0.6650 0.0000
vt 0.1892 0.6841 0.0000
vt 0.1434 0.7100 0.0000
vt 0.5342 0.9485 0.0000
vt 0.5244 0.8417 0.0000
vt 0.5581 0.8784 0.0000
vt 0.0489 0.6770 0.0000
vt 0.0798 0.7175 0.0000
vt 0.5156 0.9280 0.0000
vt 0.5015 0.9945 0.0000
vt 0.5991 0.9020 0.0000
vt 0.5947 0.8549 0.0000
vt 0.6235 0.8996 0.0000
vt 0.6235 0.8409 0.0000
vt 0.5625 0.9662 0.0000
vt 0.1615 0.7380 0.0000
vt 0.0784 0.7708 0.0000
vt 0.0517 0.7831 0.0000
vt 0.0543 0.7373 0.0000
vt 0.6343 0.8826 0.0000
vt 0.5942 0.9573 0.0000
vt 0.0681 0.7987 0.0000
vt 0.6411 0.9032 0.0000
vt 0.0362 0.7295 0.0000
vt 0.3953 0.8358 0.0000
vt 0.3689 0.9437 0.0000
vt 0.3730 0.8769 0.0000
vt 0.7104 0.8232 0.0000
vt 0.7661 0.8284 0.0000
vt 0.7378 0.8833 0.0000
vt 0.3953 0.9687 0.0000
vt 0.3198 0.9662 0.0000
vt 0.3354 0.8630 0.0000
vt 0.6841 0.8420 0.0000
vt 0.3425 0.9814 0.0000
vt 0.7661 0.9452 0.0000
vt 0.7100 0.9286 0.0000
vt 0.7197 0.8057 0.0000
vt 0.5801 0.3755 0.0000
vt 0.5781 0.3438 0.0000
vt 0.6138 0.3740 0.0000
vt 0.6279 0.3418 0.0000
vt 0.4729 0.3940 0.0000
vt 0.4705 0.3633 0.0000
vt 0.4858 0.3916 0.0000
vt 0.3340 0.2515 0.0000
vt 0.2981 0.2144 0.0000
vt 0.3650 0.2188 0.0000
vt 0.3718 0.0825 0.0000
vt 0.3828 0.1138 0.0000
vt 0.4580 0.3770 0.0000
vt 0.5083 0.3828 0.0000
vt 0.4690 0.3359 0.0000
vt 0.5376 0.3535 0.0000
vt 0.5649 0.6699 0.0000
vt 0.5962 0.6943 0.0000
vt 0.5234 0.6951 0.0000
vt 0.5967 0.3276 0.0000
vt 0.4719 0.5657 0.0000
vt 0.4824 0.5908 0.0000
vt 0.4395 0.5703 0.0000
vt 0.5767 0.4927 0.0000
vt 0.5234 0.4810 0.0000
vt 0.5449 0.4673 0.0000
vt 0.5034 0.3940 0.0000
vt 0.3560 0.2593 0.0000
vt 0.3762 0.2378 0.0000
vt 0.3765 0.2656 0.0000
vt 0.6543 0.5835 0.0000
vt 0.6323 0.5713 0.0000
vt 0.6455 0.5559 0.0000
vt 0.7700 0.6118 0.0000
vt 0.7881 0.5852 0.0000
vt 0.8008 0.6077 0.0000
vt 0.3765 0.6084 0.0000
vt 0.4497 0.6099 0.0000
vt 0.4238 0.6157 0.0000
vt 0.6006 0.3057 0.0000
vt 0.5718 0.2998 0.0000
vt 0.4172 0.2949 0.0000
vt 0.4187 0.2461 0.0000
vt 0.4463 0.2734 0.0000
vt 0.5020 0.7903 0.0000
vt 0.5889 0.8267 0.0000
vt 0.5405 0.8237 0.0000
vt 0.5928 0.4668 0.0000
vt 0.6187 0.4634 0.0000
vt 0.5586 0.3076 0.0000
vt 0.5132 0.3071 0.0000
vt 0.5630 0.3516 0.0000
vt 0.3809 0.0405 0.0000
vt 0.3589 0.0645 0.0000
vt 0.3879 0.6934 0.0000
vt 0.4023 0.6438 0.0000
vt 0.4851 0.7356 0.0000
vt 0.4807 0.7842 0.0000
vt 0.4717 0.7552 0.0000
vt 0.3850 0.6360 0.0000
vt 0.3467 0.6367 0.0000
vt 0.3643 0.6201 0.0000
vt 0.5317 0.2944 0.0000
vt 0.5151 0.8252 0.0000
vt 0.2827 0.6509 0.0000
vt 0.2759 0.6321 0.0000
vt 0.2891 0.6394 0.0000
vt 0.2017 0.5806 0.0000
vt 0.1926 0.5605 0.0000
vt 0.4114 0.6262 0.0000
vt 0.5796 0.4634 0.0000
vt 0.6743 0.5564 0.0000
vt 0.6963 0.6138 0.0000
vt 0.7202 0.5869 0.0000
vt 0.4744 0.4575 0.0000
vt 0.5688 0.5132 0.0000
vt 0.6914 0.5032 0.0000
vt 0.5215 0.5349 0.0000
vt 0.4902 0.0718 0.0000
vt 0.5576 0.3706 0.0000
vt 0.4954 0.6719 0.0000
vt 0.4941 0.7017 0.0000
vt 0.3062 0.6836 0.0000
vt 0.5176 0.7590 0.0000
vt 0.1967 0.5325 0.0000
vt 0.1687 0.5364 0.0000
vt 0.3645 0.0439 0.0000
vt 0.4304 0.6558 0.0000
vt 0.4067 0.6333 0.0000
vt 0.5313 0.5459 0.0000
vt 0.4985 0.6506 0.0000
vt 0.6387 0.6641 0.0000
vt 0.2996 0.2827 0.0000
vt 0.2852 0.2412 0.0000
vt 0.3240 0.2651 0.0000
vt 0.5151 0.4600 0.0000
vt 0.5063 0.4546 0.0000
vt 0.3008 0.6538 0.0000
vt 0.4841 0.3135 0.0000
vt 0.4875 0.2231 0.0000
vt 0.4854 0.2700 0.0000
vt 0.4680 0.2495 0.0000
vt 0.4038 0.2046 0.0000
vt 0.4631 0.1826 0.0000
vt 0.4470 0.2183 0.0000
vt 0.6675 0.3047 0.0000
vt 0.1862 0.5208 0.0000
vt 0.6313 0.2852 0.0000
vt 0.4473 0.1099 0.0000
vt 0.4856 0.0918 0.0000
vt 0.3684 0.1919 0.0000
vt 0.5044 0.8134 0.0000
vt 0.2625 0.7297 0.0000
vt 0.2482 0.7163 0.0000
vt 0.2549 0.6865 0.0000
vt 0.1980 0.5967 0.0000
vt 0.6338 0.5442 0.0000
vt 0.5767 0.5317 0.0000
vt 0.4277 0.0293 0.0000
vt 0.4836 0.0464 0.0000
vt 0.2117 0.5442 0.0000
vt 0.3142 0.6389 0.0000
vt 0.6479 0.3525 0.0000
vt 0.4043 0.2749 0.0000
vt 0.6201 0.7251 0.0000
vt 0.5605 0.6414 0.0000
vt 0.4929 0.6199 0.0000
vt 0.7837 0.5576 0.0000
vt 0.7563 0.5623 0.0000
vt 0.7051 0.5584 0.0000
vt 0.7275 0.5417 0.0000
vt 0.3381 0.6694 0.0000
vt 0.7109 0.6143 0.0000
vt 0.3318 0.5657 0.0000
vt 0.4160 0.5654 0.0000
vt 0.3667 0.5635 0.0000
vt 0.3899 0.5439 0.0000
vt 0.4666 0.7888 0.0000
vt 0.4307 0.6267 0.0000
vt 0.5850 0.7930 0.0000
vt 0.3457 0.6133 0.0000
vt 0.3367 0.6201 0.0000
vt 0.7017 0.6289 0.0000
vt 0.5972 0.7625 0.0000
vt 0.5137 0.1978 0.0000
vt 0.6392 0.5867 0.0000
vt 0.6304 0.5991 0.0000
vt 0.3047 0.6340 0.0000
vt 0.6392 0.3901 0.0000
vt 0.4902 0.5688 0.0000
vt 0.2361 0.7107 0.0000
vt 0.6616 0.6113 0.0000
vt 0.4480 0.6863 0.0000
vt 0.2654 0.7706 0.0000
vt 0.2617 0.6565 0.0000
vt 0.5313 0.3721 0.0000
vt 0.5723 0.8400 0.0000
vt 0.2068 0.5815 0.0000
vt 0.2061 0.5762 0.0000
vt 0.8701 0.9618 0.0000
vt 0.9546 0.9832 0.0000
vt 0.8267 0.9783 0.0000
vt 0.9678 0.7987 0.0000
vt 0.9644 0.8306 0.0000
vt 0.8975 0.8242 0.0000
vt 0.9375 0.9480 0.0000
vt 0.9746 0.9290 0.0000
vt 0.9458 0.9002 0.0000
vt 0.8765 0.8542 0.0000
vt 0.8989 0.7783 0.0000
vt 0.8784 0.7710 0.0000
vt 0.8623 0.7983 0.0000
vt 0.9946 0.8478 0.0000
vt 0.8706 0.7471 0.0000
vt 0.5015 0.8451 0.0000
vt 0.4424 0.8512 0.0000
vt 0.4680 0.8094 0.0000
vt 0.4795 0.9186 0.0000
vt 0.4490 0.9289 0.0000
vt 0.0152 0.8066 0.0000
vt 0.1066 0.8070 0.0000
vt 0.0747 0.8257 0.0000
vt 0.1299 0.8240 0.0000
vt 0.1299 0.9189 0.0000
vt 0.1107 0.8348 0.0000
vt 0.4976 0.9419 0.0000
vt 0.0416 0.8398 0.0000
vt 0.0361 0.9219 0.0000
vt 0.0070 0.9492 0.0000
vt 0.1002 0.9183 0.0000
vt 0.4150 0.8220 0.0000
vt 0.4214 0.9092 0.0000
vt 0.3994 0.9405 0.0000
vt 0.0826 0.9476 0.0000
vt 0.1242 0.9494 0.0000
vt 0.4766 0.9517 0.0000
vt 0.5181 0.8583 0.0000
vt 0.0727 0.9699 0.0000
vt 0.5083 0.8346 0.0000
vt 0.4307 0.8348 0.0000
vt 0.2922 0.9694 0.0000
vt 0.6621 0.9397 0.0000
vt 0.3179 0.8160 0.0000
vt 0.3142 0.8479 0.0000
vt 0.2798 0.8303 0.0000
vt 0.6958 0.9514 0.0000
vt 0.6538 0.8441 0.0000
vt 0.6475 0.9388 0.0000
vt 0.2969 0.8702 0.0000
vt 0.2727 0.9401 0.0000
vt 0.6655 0.8108 0.0000
vt 0.2786 0.8459 0.0000
vt 0.5278 0.1113 0.0000
vt 0.5942 0.0850 0.0000
vt 0.5771 0.1943 0.0000
vt 0.6060 0.1987 0.0000
vt 0.9551 0.4990 0.0000
vt 0.9614 0.3721 0.0000
vt 0.9683 0.4907 0.0000
vt 0.8608 0.5017 0.0000
vt 0.8975 0.5276 0.0000
vt 0.8691 0.5352 0.0000
vt 0.9453 0.5093 0.0000
vt 0.7188 0.0557 0.0000
vt 0.7017 0.0137 0.0000
vt 0.7319 0.0156 0.0000
vt 0.6260 0.2197 0.0000
vt 0.6338 0.2354 0.0000
vt 0.6870 0.2212 0.0000
vt 0.9351 0.3394 0.0000
vt 0.9512 0.3589 0.0000
vt 0.9033 0.3394 0.0000
vt 0.7690 0.2271 0.0000
vt 0.7407 0.2295 0.0000
vt 0.7974 0.2134 0.0000
vt 0.8706 0.4028 0.0000
vt 0.7852 0.4209 0.0000
vt 0.8257 0.3882 0.0000
vt 0.8208 0.4487 0.0000
vt 0.8813 0.5566 0.0000
vt 0.8062 0.5596 0.0000
vt 0.8438 0.5557 0.0000
vt 0.7432 0.3418 0.0000
vt 0.7393 0.3696 0.0000
vt 0.7026 0.3721 0.0000
vt 0.8618 0.4756 0.0000
vt 0.7920 0.4922 0.0000
vt 0.7993 0.5105 0.0000
vt 0.7349 0.5393 0.0000
vt 0.6641 0.6758 0.0000
vt 0.6587 0.6948 0.0000
vt 0.7910 0.3428 0.0000
vt 0.7715 0.3735 0.0000
vt 0.6626 0.3750 0.0000
vt 0.7212 0.2036 0.0000
vt 0.8228 0.0425 0.0000
vt 0.7949 0.0088 0.0000
vt 0.6191 0.2563 0.0000
vt 0.5898 0.2363 0.0000
vt 0.5742 0.2158 0.0000
vt 0.9175 0.3940 0.0000
vt 0.8623 0.3687 0.0000
vt 0.6357 0.1855 0.0000
vt 0.6719 0.2593 0.0000
vt 0.6904 0.3340 0.0000
vt 0.8101 0.4946 0.0000
vt 0.7676 0.4648 0.0000
vt 0.6240 0.1084 0.0000
vt 0.6611 0.0889 0.0000
vt 0.7344 0.4663 0.0000
vt 0.5288 0.2686 0.0000
vt 0.5640 0.2476 0.0000
vt 0.5698 0.2720 0.0000
vt 0.7056 0.3047 0.0000
vt 0.8159 0.3755 0.0000
vt 0.8188 0.3613 0.0000
vt 0.8335 0.5852 0.0000
vt 0.8447 0.6067 0.0000
vt 0.8921 0.6055 0.0000
vt 0.6274 0.6401 0.0000
vt 0.5850 0.6323 0.0000
vt 0.5371 0.6199 0.0000
vt 0.5132 0.6379 0.0000
vt 0.6846 0.4546 0.0000
vt 0.7080 0.4639 0.0000
vt 0.5552 0.5938 0.0000
vt 0.6626 0.4585 0.0000
vt 0.7817 0.4443 0.0000
vt 0.8574 0.3306 0.0000
vt 0.9443 0.4312 0.0000
vt 0.8276 0.3325 0.0000
vt 0.6846 0.3789 0.0000
vt 0.7427 0.2007 0.0000
vt 0.7988 0.3140 0.0000
vt 0.6064 0.5745 0.0000
vt 0.6167 0.5962 0.0000
vt 0.5815 0.5532 0.0000
vt 0.5640 0.6133 0.0000
vt 0.8242 0.5415 0.0000
vt 0.7549 0.3179 0.0000
vt 0.8311 0.5325 0.0000
vt 0.6621 0.0078 0.0000
vt 0.6416 0.0205 0.0000
vt 0.8188 0.5254 0.0000
vt 0.7949 0.5391 0.0000
vt 0.7603 0.5444 0.0000
vt 0.7075 0.0781 0.0000
vt 0.9263 0.5620 0.0000
vt 0.7861 0.3931 0.0000
vt 0.7158 0.1772 0.0000
vt 0.7617 0.2793 0.0000
vt 0.9351 0.6233 0.0000
vt 0.9150 0.6638 0.0000
vt 0.9731 0.6714 0.0000
vt 0.9497 0.6653 0.0000
vt 0.7314 0.1064 0.0000
vt 0.7280 0.1660 0.0000
vt 0.8145 0.0732 0.0000
vt 0.6948 0.5261 0.0000
vt 0.5825 0.0356 0.0000
vt 0.5840 0.0557 0.0000
vt 0.5454 0.0273 0.0000
vt 0.7095 0.2788 0.0000
vt 0.6987 0.2793 0.0000
vt 0.7349 0.2637 0.0000
vt 0.5356 0.0371 0.0000
vt 0.8115 0.4805 0.0000
vt 0.6831 0.5232 0.0000
vt 0.8286 0.3218 0.0000
vt 0.8579 0.6223 0.0000
vt 0.5225 0.5664 0.0000
vt 0.8164 0.5420 0.0000
vt 0.8218 0.5208 0.0000
vt 0.6445 0.7876 0.0000
vt 0.9106 0.5464 0.0000
vt 0.9487 0.5627 0.0000
vt 0.9580 0.5867 0.0000
vt 0.9795 0.4111 0.0000
vt 0.9370 0.5325 0.0000
vt 0.5122 0.2451 0.0000
vt 0.6206 0.8203 0.0000
vt 0.6626 0.7502 0.0000
vt 0.9814 0.4692 0.0000
vt 0.8125 0.5498 0.0000
vt 0.6445 0.0029 0.0000
vt 0.9131 0.4722 0.0000
vt 0.8506 0.1836 0.0000
vt 0.6011 0.0684 0.0000
vt 0.6094 0.0308 0.0000
vt 0.9595 0.6152 0.0000
vt 0.5664 0.0718 0.0000
vt 0.5957 0.6184 0.0000
vt 0.9961 0.6509 0.0000
vt 0.9766 0.6313 0.0000
vt 0.5410 0.5488 0.0000
vt 0.8740 0.6726 0.0000
vt 0.9932 0.3989 0.0000
vt 0.9741 0.3823 0.0000
vt 0.8667 0.3159 0.0000
vt 0.7510 0.2646 0.0000
vt 0.8125 0.1587 0.0000
vt 0.6802 0.7692 0.0000
vt 0.7715 0.0063 0.0000
vt 0.5815 0.0439 0.0000
vt 0.1694 0.8408 0.0000
vt 0.1636 0.9216 0.0000
vt 0.1354 0.9073 0.0000
vt 0.1965 0.9408 0.0000
vt 0.1321 0.9743 0.0000
vt 0.9424 0.2056 0.0000
vt 0.8633 0.1758 0.0000
vt 0.9839 0.1660 0.0000
vt 0.9336 0.1660 0.0000
vt 0.2742 0.8571 0.0000
vt 0.2426 0.9692 0.0000
vt 0.2292 0.9316 0.0000
vt 0.2422 0.8685 0.0000
vt 0.8633 0.3149 0.0000
vt 0.8926 0.2017 0.0000
vt 0.8955 0.2671 0.0000
vt 0.9541 0.2676 0.0000
vt 0.2130 0.8203 0.0000
vt 1.0000 0.2568 0.0000
vt 0.9883 0.3149 0.0000
vt 0.9282 0.2915 0.0000
vt 0.1548 0.8160 0.0000
vt 0.6118 0.9979 0.0000
vt 0.1870 0.7987 0.0000
vt 0.1432 0.7755 0.0000
vt 0.8340 0.0464 0.0000
vt 0.8384 0.1641 0.0000
vt 0.8369 0.1079 0.0000
vt 0.8491 0.0659 0.0000
vt 0.8750 0.1592 0.0000
vt 0.8608 0.1636 0.0000
vt 0.9023 0.0796 0.0000
vt 0.8340 0.2036 0.0000
vt 0.8984 0.1528 0.0000
vt 0.9224 0.1396 0.0000
vt 0.9258 0.0811 0.0000
vt 0.8145 0.2217 0.0000
vt 0.9321 0.8951 0.0000
vt 0.8569 0.9249 0.0000
vt 0.9541 0.8690 0.0000
vt 0.8286 0.8732 0.0000
vt 0.9614 0.7660 0.0000
vt 0.9917 0.7478 0.0000
vt 0.8745 0.8977 0.0000
vt 0.8853 0.8776 0.0000
vt 0.9399 0.7317 0.0000
# 643 texture coords

g default
usemtl Military_Sandbags
s 1
f 1/1/1 2/2/2 3/3/3 
f 2/2/2 1/1/1 4/4/4 
f 5/5/5 6/6/6 7/7/7 
f 8/8/8 9/9/9 10/10/10 
f 10/11/10 11/12/11 8/13/8 
f 12/14/12 13/15/13 14/16/14 
f 15/17/15 16/18/16 13/15/13 
f 17/19/17 18/20/18 19/21/19 
f 20/22/20 17/23/17 19/24/19 
f 21/25/21 22/26/22 23/27/23 
f 24/28/24 25/29/25 21/25/21 
f 26/30/26 27/13/27 28/31/28 
f 28/31/28 27/13/27 29/32/29 
f 30/33/30 13/15/13 7/34/7 
f 7/34/7 6/35/6 30/33/30 
f 28/31/28 16/18/16 26/30/26 
f 31/36/31 32/37/32 33/38/33 
f 32/37/32 34/39/34 33/38/33 
f 35/40/35 36/41/36 14/16/14 
f 3/3/3 37/42/37 38/43/38 
f 39/44/39 40/45/40 41/46/41 
f 40/47/40 42/48/42 41/49/41 
f 43/50/43 9/9/9 44/51/44 
f 44/52/44 9/53/9 21/54/21 
f 45/55/45 46/56/46 39/44/39 
f 46/56/46 6/6/6 39/44/39 
f 47/57/47 48/58/48 49/59/49 
f 50/60/50 51/61/51 52/62/52 
f 53/63/53 54/64/54 55/65/55 
f 56/66/56 51/67/51 57/68/57 
f 58/69/58 42/48/42 59/70/59 
f 4/4/4 40/45/40 39/44/39 
f 20/22/20 60/71/60 61/72/61 
f 61/72/61 60/71/60 62/73/62 
f 4/4/4 1/1/1 63/74/63 
f 20/22/20 61/72/61 64/75/64 
f 65/76/65 34/39/34 66/77/66 
f 67/78/67 65/76/65 66/77/66 
f 68/79/68 58/69/58 69/80/69 
f 70/81/70 69/80/69 58/69/58 
f 71/82/71 34/39/34 65/76/65 
f 72/83/72 49/59/49 73/84/73 
f 73/84/73 49/59/49 48/58/48 
f 74/85/74 75/86/75 20/22/20 
f 20/22/20 64/75/64 74/85/74 
f 29/87/29 27/32/27 11/12/11 
f 31/88/31 22/26/22 76/89/76 
f 32/37/32 31/36/31 77/90/77 
f 41/49/41 42/48/42 68/79/68 
f 78/91/78 25/29/25 79/92/79 
f 80/93/80 79/94/79 81/95/81 
f 45/96/45 39/44/39 41/46/41 
f 41/49/41 68/79/68 45/97/45 
f 25/29/25 81/98/81 79/92/79 
f 15/17/15 47/99/47 49/100/49 
f 82/101/82 50/60/50 83/102/83 
f 82/101/82 83/102/83 4/4/4 
f 44/52/44 21/54/21 23/103/23 
f 84/104/84 85/105/85 86/106/86 
f 68/79/68 69/80/69 87/107/87 
f 45/97/45 68/79/68 87/107/87 
f 6/108/6 13/15/13 30/33/30 
f 88/109/88 33/38/33 89/110/89 
f 90/111/90 91/112/91 92/113/92 
f 93/114/93 90/115/90 92/116/92 
f 4/4/4 63/74/63 82/101/82 
f 79/94/79 80/93/80 78/117/78 
f 32/37/32 80/93/80 34/39/34 
f 78/117/78 80/93/80 32/37/32 
f 76/89/76 22/26/22 94/118/94 
f 94/119/94 32/37/32 76/120/76 
f 49/100/49 26/30/26 16/18/16 
f 47/99/47 95/121/95 96/122/96 
f 55/65/55 54/64/54 92/116/92 
f 43/50/43 44/51/44 23/123/23 
f 22/26/22 97/124/97 23/27/23 
f 31/36/31 57/125/57 98/126/98 
f 99/127/99 8/8/8 100/128/100 
f 101/129/101 99/130/99 100/131/100 
f 98/132/98 102/133/102 31/88/31 
f 101/129/101 100/134/100 103/135/103 
f 103/135/103 100/134/100 55/136/55 
f 74/85/74 46/56/46 87/137/87 
f 46/56/46 64/75/64 6/6/6 
f 18/20/18 69/80/69 70/81/70 
f 70/81/70 58/69/58 104/138/104 
f 102/133/102 5/5/5 84/139/84 
f 7/7/7 84/139/84 5/5/5 
f 95/121/95 13/15/13 6/108/6 
f 64/75/64 46/56/46 74/85/74 
f 9/9/9 8/8/8 99/127/99 
f 43/50/43 10/10/10 9/9/9 
f 96/122/96 105/140/105 47/99/47 
f 42/48/42 50/141/50 106/142/106 
f 19/21/19 18/20/18 107/143/107 
f 69/80/69 18/20/18 75/144/75 
f 37/42/37 108/145/108 5/5/5 
f 38/43/38 37/42/37 5/5/5 
f 49/100/49 16/18/16 15/17/15 
f 109/146/109 97/147/97 43/148/43 
f 97/124/97 109/149/109 23/27/23 
f 49/59/49 90/115/90 93/114/93 
f 110/150/110 36/41/36 35/40/35 
f 52/151/52 111/152/111 88/109/88 
f 52/151/52 88/109/88 106/142/106 
f 58/69/58 112/153/112 104/138/104 
f 113/154/113 70/81/70 104/138/104 
f 112/153/112 113/154/113 104/138/104 
f 114/155/114 97/147/97 86/156/86 
f 114/155/114 86/156/86 110/150/110 
f 57/68/57 63/74/63 38/43/38 
f 5/5/5 102/133/102 38/43/38 
f 88/109/88 59/70/59 106/142/106 
f 102/133/102 84/139/84 115/157/115 
f 51/61/51 56/158/56 52/62/52 
f 50/60/50 82/101/82 51/61/51 
f 116/159/116 89/110/89 33/38/33 
f 33/38/33 71/82/71 116/159/116 
f 50/141/50 52/151/52 106/142/106 
f 86/156/86 97/147/97 115/160/115 
f 85/105/85 84/104/84 7/34/7 
f 22/26/22 31/88/31 102/133/102 
f 97/124/97 22/26/22 102/133/102 
f 63/74/63 1/1/1 3/3/3 
f 3/3/3 2/2/2 108/145/108 
f 69/80/69 117/161/117 87/107/87 
f 2/2/2 4/4/4 108/145/108 
f 39/44/39 108/145/108 4/4/4 
f 87/137/87 117/162/117 74/85/74 
f 18/20/18 17/19/17 118/163/118 
f 31/36/31 111/152/111 57/125/57 
f 111/152/111 52/151/52 56/164/56 
f 119/165/119 103/135/103 120/166/120 
f 64/75/64 95/167/95 6/6/6 
f 15/17/15 13/15/13 95/121/95 
f 85/105/85 110/150/110 86/156/86 
f 119/165/119 101/129/101 103/135/103 
f 43/50/43 23/123/23 109/168/109 
f 67/78/67 70/81/70 113/154/113 
f 33/38/33 34/39/34 71/82/71 
f 71/82/71 65/76/65 113/154/113 
f 83/169/83 40/45/40 4/4/4 
f 86/156/86 115/160/115 84/170/84 
f 110/150/110 35/40/35 114/155/114 
f 13/15/13 16/18/16 14/16/14 
f 28/31/28 29/87/29 35/40/35 
f 48/171/48 61/72/61 62/73/62 
f 61/72/61 96/172/96 64/75/64 
f 76/120/76 32/37/32 77/90/77 
f 31/88/31 76/89/76 77/173/77 
f 118/174/118 17/23/17 20/22/20 
f 8/8/8 53/63/53 100/128/100 
f 116/159/116 71/82/71 112/153/112 
f 49/59/49 72/83/72 90/115/90 
f 93/114/93 92/116/92 54/64/54 
f 59/70/59 89/110/89 116/159/116 
f 111/152/111 33/38/33 88/109/88 
f 57/68/57 51/67/51 63/74/63 
f 39/44/39 5/5/5 108/145/108 
f 88/109/88 89/110/89 59/70/59 
f 85/105/85 7/34/7 13/15/13 
f 40/47/40 50/175/50 42/48/42 
f 97/124/97 102/133/102 115/157/115 
f 38/43/38 102/133/102 98/132/98 
f 21/25/21 25/29/25 22/26/22 
f 31/36/31 33/38/33 111/152/111 
f 105/140/105 121/176/121 47/99/47 
f 98/177/98 57/68/57 38/43/38 
f 63/74/63 3/3/3 38/43/38 
f 75/144/75 18/20/18 118/163/118 
f 59/70/59 116/159/116 58/69/58 
f 118/174/118 20/22/20 75/86/75 
f 106/142/106 59/70/59 42/48/42 
f 22/26/22 25/29/25 78/91/78 
f 3/3/3 108/145/108 37/42/37 
f 122/178/122 21/54/21 9/53/9 
f 36/41/36 110/150/110 12/14/12 
f 12/14/12 110/150/110 85/105/85 
f 48/58/48 121/179/121 105/180/105 
f 114/155/114 10/11/10 97/147/97 
f 36/41/36 12/14/12 14/16/14 
f 91/112/91 103/135/103 92/113/92 
f 92/113/92 103/135/103 55/136/55 
f 122/178/122 9/53/9 99/181/99 
f 101/129/101 122/182/122 99/130/99 
f 21/54/21 123/183/123 24/184/24 
f 26/30/26 49/100/49 93/185/93 
f 114/155/114 11/12/11 10/11/10 
f 13/15/13 12/14/12 85/105/85 
f 48/171/48 62/73/62 73/186/73 
f 35/40/35 14/16/14 28/31/28 
f 16/18/16 28/31/28 14/16/14 
f 107/187/107 60/71/60 19/24/19 
f 93/185/93 54/188/54 26/30/26 
f 54/188/54 53/189/53 26/30/26 
f 53/189/53 8/189/8 26/30/26 
f 26/30/26 8/189/8 27/13/27 
f 83/169/83 50/190/50 40/45/40 
f 18/20/18 67/78/67 107/143/107 
f 124/191/124 48/58/48 105/180/105 
f 10/11/10 43/148/43 97/147/97 
f 124/192/124 61/72/61 48/171/48 
f 20/22/20 19/24/19 60/71/60 
f 114/155/114 35/40/35 11/12/11 
f 35/40/35 29/87/29 11/12/11 
f 11/12/11 27/32/27 8/13/8 
f 42/48/42 58/69/58 68/79/68 
f 113/154/113 65/76/65 67/78/67 
f 75/86/75 74/85/74 117/162/117 
f 75/144/75 117/161/117 69/80/69 
f 111/152/111 56/193/56 57/125/57 
f 87/137/87 46/56/46 45/55/45 
f 63/74/63 51/61/51 82/101/82 
f 116/159/116 112/153/112 58/69/58 
f 125/194/125 60/71/60 107/187/107 
f 112/153/112 71/82/71 113/154/113 
f 94/118/94 22/26/22 78/91/78 
f 78/117/78 32/37/32 94/119/94 
f 18/20/18 70/81/70 67/78/67 
f 47/99/47 15/17/15 95/121/95 
f 95/167/95 64/75/64 96/172/96 
f 61/72/61 124/192/124 105/195/105 
f 48/58/48 47/57/47 121/179/121 
f 39/44/39 6/6/6 5/5/5 
f 105/195/105 96/172/96 61/72/61 
f 100/128/100 53/63/53 55/65/55 
f 126/196/126 127/197/127 128/198/128 
f 129/199/129 130/200/130 131/201/131 
f 130/202/130 128/198/128 132/203/132 
f 126/204/126 129/199/129 127/205/127 
f 133/206/133 134/207/134 135/208/135 
f 136/209/136 135/208/135 134/207/134 
f 129/199/129 131/201/131 137/210/137 
f 126/204/126 130/200/130 129/199/129 
f 134/207/134 133/206/133 131/201/131 
f 128/198/128 138/211/138 132/203/132 
f 139/212/139 140/213/140 136/214/136 
f 127/197/127 138/211/138 128/198/128 
f 137/210/137 127/205/127 129/199/129 
f 126/196/126 128/198/128 130/202/130 
f 136/209/136 140/215/140 135/208/135 
f 133/206/133 137/210/137 131/201/131 
f 138/211/138 139/212/139 132/203/132 
f 135/208/135 141/216/141 133/206/133 
f 142/217/142 140/213/140 139/212/139 
f 142/218/142 135/208/135 140/215/140 
f 131/201/131 130/200/130 134/207/134 
f 132/203/132 139/212/139 136/214/136 
f 130/202/130 136/214/136 134/219/134 
f 136/214/136 130/202/130 132/203/132 
f 143/220/143 144/221/144 145/222/145 
f 146/223/146 147/224/147 148/225/148 
f 144/221/144 147/226/147 149/227/149 
f 150/228/150 143/220/143 145/222/145 
f 148/225/148 151/229/151 146/223/146 
f 149/227/149 147/226/147 152/230/152 
f 143/231/143 148/225/148 147/224/147 
f 147/226/147 144/221/144 143/220/143 
f 143/231/143 153/232/153 148/225/148 
f 150/228/150 145/222/145 144/221/144 
f 152/233/152 147/224/147 146/223/146 
f 153/232/153 151/229/151 148/225/148 
f 154/234/154 155/235/155 156/236/156 
f 155/235/155 157/237/157 156/236/156 
f 158/238/158 159/239/159 160/240/160 
f 161/241/161 162/242/162 163/243/163 
f 164/244/164 165/245/165 66/77/66 
f 66/77/66 165/245/165 162/242/162 
f 159/239/159 158/238/158 166/246/166 
f 167/247/167 168/248/168 169/249/169 
f 170/250/170 171/251/171 172/252/172 
f 157/237/157 155/235/155 173/253/173 
f 174/254/174 175/255/175 176/256/176 
f 177/257/177 178/258/178 179/259/179 
f 180/260/180 160/240/160 167/247/167 
f 181/261/181 182/262/182 183/263/183 
f 184/264/184 180/265/180 167/266/167 
f 62/73/62 166/246/166 73/186/73 
f 185/267/185 186/268/186 187/269/187 
f 179/270/179 188/271/188 189/272/189 
f 190/273/190 173/253/173 191/274/191 
f 191/275/191 192/276/192 190/277/190 
f 193/278/193 194/279/194 176/280/176 
f 177/257/177 189/281/189 188/282/188 
f 176/256/176 175/255/175 179/270/179 
f 195/283/195 169/249/169 181/284/181 
f 196/285/196 169/249/169 195/283/195 
f 197/286/197 164/244/164 198/287/198 
f 101/129/101 119/165/119 199/288/199 
f 200/289/200 101/129/101 199/288/199 
f 201/290/201 193/278/193 202/291/202 
f 201/290/201 202/291/202 203/292/203 
f 204/293/204 201/294/201 203/295/203 
f 181/284/181 183/296/183 195/283/195 
f 193/278/193 176/280/176 205/297/205 
f 206/298/206 207/299/207 208/300/208 
f 209/301/209 72/83/72 210/302/210 
f 211/303/211 179/270/179 189/272/189 
f 179/270/179 175/255/175 188/271/188 
f 211/304/211 189/281/189 177/257/177 
f 212/305/212 184/264/184 167/266/167 
f 207/306/207 184/264/184 213/307/213 
f 214/308/214 25/29/25 24/28/24 
f 177/257/177 215/309/215 25/29/25 
f 177/257/177 216/310/216 215/309/215 
f 25/29/25 215/309/215 217/311/217 
f 218/312/218 164/244/164 197/286/197 
f 169/249/169 196/285/196 219/313/219 
f 208/314/208 172/252/172 220/315/220 
f 91/112/91 221/316/221 120/166/120 
f 220/315/220 222/317/222 201/290/201 
f 160/318/160 210/302/210 166/319/166 
f 62/73/62 159/239/159 166/246/166 
f 198/287/198 217/320/217 197/286/197 
f 223/321/223 200/289/200 204/322/204 
f 217/311/217 215/309/215 197/323/197 
f 170/250/170 224/324/224 225/325/225 
f 125/326/125 107/143/107 226/327/226 
f 226/327/226 227/328/227 125/326/125 
f 178/258/178 228/329/228 179/259/179 
f 178/258/178 25/29/25 229/330/229 
f 230/331/230 221/316/221 206/298/206 
f 161/241/161 181/261/181 227/328/227 
f 168/248/168 125/194/125 227/332/227 
f 160/240/160 159/239/159 167/247/167 
f 231/333/231 232/334/232 233/335/233 
f 234/336/234 235/337/235 236/338/236 
f 157/237/157 173/253/173 237/339/237 
f 158/340/158 160/318/160 166/319/166 
f 237/339/237 173/253/173 232/341/232 
f 238/342/238 218/312/218 239/343/239 
f 163/243/163 162/242/162 240/344/240 
f 234/336/234 236/338/236 192/276/192 
f 202/345/202 193/278/193 205/297/205 
f 72/346/72 241/347/241 242/348/242 
f 72/83/72 209/301/209 241/349/241 
f 243/350/243 244/351/244 215/309/215 
f 218/312/218 244/352/244 243/353/243 
f 177/257/177 188/282/188 216/310/216 
f 215/309/215 216/310/216 243/350/243 
f 215/309/215 244/351/244 197/323/197 
f 160/318/160 180/354/180 210/302/210 
f 210/302/210 73/84/73 166/319/166 
f 155/235/155 195/283/195 191/274/191 
f 173/253/173 155/235/155 191/274/191 
f 182/262/182 163/243/163 234/336/234 
f 236/338/236 235/337/235 231/333/231 
f 235/337/235 239/343/239 231/333/231 
f 168/248/168 62/73/62 60/71/60 
f 220/355/220 230/331/230 206/298/206 
f 220/355/220 201/294/201 230/331/230 
f 208/300/208 220/355/220 206/298/206 
f 156/236/156 157/237/157 245/356/245 
f 182/262/182 181/261/181 161/241/161 
f 183/263/183 182/262/182 195/357/195 
f 191/275/191 195/357/195 192/276/192 
f 222/317/222 172/252/172 246/358/246 
f 225/325/225 224/324/224 185/359/185 
f 247/360/247 188/271/188 175/255/175 
f 248/361/248 186/268/186 156/362/156 
f 156/362/156 219/363/219 154/364/154 
f 199/288/199 120/166/120 249/365/249 
f 172/252/172 224/324/224 170/250/170 
f 213/307/213 219/363/219 156/362/156 
f 219/313/219 196/285/196 154/234/154 
f 224/366/224 207/306/207 185/267/185 
f 177/257/177 179/259/179 211/304/211 
f 250/367/250 179/270/179 123/183/123 
f 81/98/81 25/29/25 217/311/217 
f 81/95/81 198/287/198 80/93/80 
f 173/253/173 190/273/190 232/341/232 
f 217/320/217 198/287/198 81/95/81 
f 72/346/72 242/348/242 206/298/206 
f 165/245/165 238/342/238 234/336/234 
f 164/244/164 238/342/238 165/245/165 
f 226/327/226 67/78/67 162/242/162 
f 205/368/205 223/369/223 203/370/203 
f 202/291/202 205/371/205 203/292/203 
f 250/367/250 176/256/176 179/270/179 
f 223/321/223 204/322/204 203/372/203 
f 213/307/213 156/362/156 186/268/186 
f 204/293/204 230/331/230 201/294/201 
f 101/129/101 200/289/200 122/182/122 
f 221/316/221 230/331/230 249/365/249 
f 186/268/186 185/267/185 213/307/213 
f 251/373/251 194/279/194 193/278/193 
f 193/278/193 201/290/201 222/317/222 
f 123/183/123 228/374/228 229/375/229 
f 178/258/178 229/330/229 228/329/228 
f 34/39/34 80/93/80 164/244/164 
f 207/306/207 213/307/213 185/267/185 
f 207/306/207 224/366/224 208/376/208 
f 178/258/178 177/257/177 25/29/25 
f 251/373/251 193/278/193 252/377/252 
f 164/244/164 218/312/218 238/342/238 
f 238/342/238 239/343/239 235/337/235 
f 244/352/244 218/312/218 197/286/197 
f 227/332/227 181/284/181 169/249/169 
f 206/298/206 221/316/221 91/112/91 
f 230/331/230 204/293/204 249/365/249 
f 168/248/168 159/239/159 62/73/62 
f 231/333/231 239/343/239 253/378/253 
f 125/194/125 168/248/168 60/71/60 
f 66/77/66 162/242/162 67/78/67 
f 182/262/182 234/336/234 192/276/192 
f 154/234/154 196/285/196 155/235/155 
f 193/278/193 222/317/222 252/377/252 
f 209/379/209 184/264/184 254/380/254 
f 204/293/204 200/289/200 199/288/199 
f 234/336/234 238/342/238 235/337/235 
f 34/39/34 164/244/164 66/77/66 
f 25/29/25 214/308/214 229/330/229 
f 123/183/123 214/381/214 24/184/24 
f 240/344/240 165/245/165 234/336/234 
f 123/183/123 122/178/122 250/367/250 
f 192/276/192 233/335/233 190/277/190 
f 190/277/190 233/335/233 232/334/232 
f 182/262/182 192/276/192 195/357/195 
f 248/382/248 156/236/156 245/356/245 
f 175/255/175 174/254/174 194/383/194 
f 176/256/176 223/369/223 205/368/205 
f 226/327/226 161/241/161 227/328/227 
f 21/54/21 122/178/122 123/183/123 
f 254/384/254 242/348/242 241/347/241 
f 184/264/184 242/385/242 254/380/254 
f 122/182/122 200/289/200 223/321/223 
f 122/182/122 223/321/223 250/386/250 
f 206/298/206 91/112/91 72/346/72 
f 204/293/204 199/288/199 249/365/249 
f 162/242/162 165/245/165 240/344/240 
f 72/346/72 91/112/91 90/387/90 
f 214/381/214 123/183/123 229/375/229 
f 242/348/242 207/388/207 206/298/206 
f 184/264/184 212/305/212 219/363/219 
f 250/367/250 223/369/223 176/256/176 
f 172/252/172 222/317/222 220/315/220 
f 72/83/72 73/84/73 210/302/210 
f 182/262/182 161/241/161 163/243/163 
f 199/288/199 119/165/119 120/166/120 
f 163/243/163 240/344/240 234/336/234 
f 159/239/159 168/248/168 167/247/167 
f 242/385/242 184/264/184 207/306/207 
f 184/264/184 219/363/219 213/307/213 
f 172/252/172 208/314/208 224/324/224 
f 164/244/164 80/93/80 198/287/198 
f 209/379/209 180/265/180 184/264/184 
f 231/333/231 192/276/192 236/338/236 
f 212/389/212 169/249/169 219/313/219 
f 249/365/249 120/166/120 221/316/221 
f 228/374/228 123/183/123 179/270/179 
f 176/280/176 194/279/194 174/390/174 
f 212/389/212 167/247/167 169/249/169 
f 254/391/254 241/349/241 209/301/209 
f 192/276/192 231/333/231 233/335/233 
f 168/248/168 227/332/227 169/249/169 
f 195/283/195 155/235/155 196/285/196 
f 162/242/162 161/241/161 226/327/226 
f 180/392/180 209/301/209 210/302/210 
f 255/393/255 256/394/256 257/395/257 
f 258/396/258 259/397/259 260/398/260 
f 261/399/261 262/400/262 256/394/256 
f 255/393/255 261/399/261 256/394/256 
f 263/401/263 262/400/262 261/399/261 
f 259/397/259 256/402/256 260/398/260 
f 258/396/258 260/398/260 264/403/264 
f 256/402/256 265/404/265 260/398/260 
f 265/404/265 256/402/256 262/405/262 
f 257/406/257 256/402/256 259/397/259 
f 264/403/264 260/398/260 265/404/265 
f 266/407/266 265/404/265 262/405/262 
f 267/408/267 268/409/268 269/410/269 
f 270/411/270 271/412/271 268/409/268 
f 272/413/272 273/414/273 274/415/274 
f 275/416/275 276/417/276 277/418/277 
f 270/411/270 275/419/275 271/412/271 
f 278/420/278 279/421/279 272/413/272 
f 280/422/280 272/413/272 279/421/279 
f 278/420/278 281/423/281 279/421/279 
f 280/424/280 282/425/282 272/426/272 
f 283/427/283 281/423/281 284/428/284 
f 275/419/275 270/411/270 267/408/267 
f 271/412/271 272/426/272 282/425/282 
f 271/412/271 273/429/273 272/426/272 
f 283/427/283 280/422/280 279/421/279 
f 276/417/276 281/423/281 277/418/277 
f 270/411/270 268/409/268 267/408/267 
f 267/408/267 276/430/276 275/419/275 
f 269/431/269 283/427/283 284/428/284 
f 267/408/267 284/432/284 276/430/276 
f 282/425/282 285/433/285 268/409/268 
f 268/409/268 285/433/285 269/410/269 
f 281/423/281 283/427/283 279/421/279 
f 278/420/278 277/418/277 281/423/281 
f 278/420/278 272/413/272 274/415/274 
f 271/412/271 282/425/282 268/409/268 
f 285/433/285 280/424/280 269/410/269 
f 282/425/282 280/424/280 285/433/285 
f 274/415/274 277/418/277 278/420/278 
f 273/414/273 277/418/277 274/415/274 
f 275/419/275 273/429/273 271/412/271 
f 276/417/276 284/428/284 281/423/281 
f 277/418/277 273/414/273 275/416/275 
f 269/431/269 280/422/280 283/427/283 
f 284/432/284 267/408/267 269/410/269 
f 286/434/286 149/227/149 152/230/152 
f 153/232/153 287/435/287 151/229/151 
f 288/436/288 289/437/289 287/438/287 
f 288/439/288 287/435/287 153/232/153 
f 290/440/290 287/435/287 291/441/291 
f 149/227/149 292/442/292 150/228/150 
f 151/229/151 287/435/287 290/440/290 
f 292/442/292 286/434/286 290/443/290 
f 286/444/286 151/229/151 290/440/290 
f 150/228/150 144/221/144 149/227/149 
f 286/444/286 152/233/152 146/223/146 
f 292/442/292 290/443/290 291/445/291 
f 286/434/286 292/442/292 149/227/149 
f 286/444/286 146/223/146 151/229/151 
f 289/437/289 292/442/292 291/445/291 
f 289/437/289 291/445/291 287/438/287 
f 293/446/293 294/447/294 295/448/295 
f 294/447/294 296/449/296 295/448/295 
f 297/450/297 298/451/298 299/452/299 
f 300/453/300 301/454/301 302/455/302 
f 299/456/299 300/453/300 297/450/297 
f 303/457/303 302/458/302 301/459/301 
f 304/460/304 305/461/305 296/449/296 
f 305/461/305 304/460/304 306/462/306 
f 307/463/307 308/464/308 309/465/309 
f 309/466/309 310/467/310 307/468/307 
f 311/469/311 312/470/312 313/471/313 
f 311/469/311 314/472/314 312/470/312 
f 315/473/315 316/474/316 317/475/317 
f 318/476/318 315/477/315 317/478/317 
f 311/469/311 319/479/319 314/472/314 
f 320/480/320 321/481/321 322/482/322 
f 323/483/323 324/484/324 225/325/225 
f 318/476/318 325/485/325 326/486/326 
f 245/356/245 316/487/316 248/382/248 
f 186/268/186 248/361/248 316/474/316 
f 304/460/304 327/488/327 306/462/306 
f 328/489/328 303/457/303 329/490/329 
f 330/491/330 331/492/331 296/449/296 
f 332/493/332 296/449/296 331/492/331 
f 333/494/333 311/469/311 334/495/334 
f 313/471/313 334/495/334 311/469/311 
f 335/496/335 304/460/304 296/449/296 
f 296/449/296 305/461/305 330/491/330 
f 306/462/306 336/497/336 305/461/305 
f 245/356/245 157/237/157 337/498/337 
f 338/499/338 320/480/320 339/500/339 
f 340/501/340 341/502/341 335/496/335 
f 320/480/320 342/503/342 339/500/339 
f 237/504/237 343/505/343 344/506/344 
f 337/498/337 237/339/237 344/507/344 
f 345/508/345 346/509/346 334/495/334 
f 345/508/345 334/495/334 313/471/313 
f 187/269/187 347/510/347 323/511/323 
f 347/510/347 348/512/348 323/511/323 
f 323/513/323 225/325/225 187/514/187 
f 247/360/247 349/515/349 350/516/350 
f 350/517/350 349/518/349 216/310/216 
f 351/519/351 349/515/349 247/360/247 
f 350/517/350 216/310/216 247/520/247 
f 312/470/312 314/472/314 352/521/352 
f 353/522/353 334/495/334 346/509/346 
f 103/135/103 91/112/91 120/166/120 
f 333/494/333 354/523/354 311/469/311 
f 239/343/239 294/447/294 293/446/293 
f 332/493/332 295/448/295 296/449/296 
f 309/465/309 334/495/334 353/522/353 
f 325/485/325 355/524/355 346/509/346 
f 356/525/356 337/498/337 317/478/317 
f 315/477/315 318/476/318 326/486/326 
f 186/268/186 347/510/347 187/269/187 
f 310/467/310 357/526/357 307/468/307 
f 336/527/336 355/524/355 325/485/325 
f 358/528/358 359/529/359 360/530/360 
f 327/488/327 357/526/357 310/467/310 
f 342/503/342 216/310/216 349/518/349 
f 351/519/351 342/531/342 349/515/349 
f 333/494/333 298/451/298 354/523/354 
f 226/327/226 107/143/107 67/78/67 
f 317/475/317 316/474/316 356/532/356 
f 300/453/300 314/472/314 319/479/319 
f 318/476/318 337/498/337 361/533/361 
f 225/325/225 185/359/185 187/514/187 
f 362/534/362 300/453/300 302/455/302 
f 301/454/301 300/453/300 299/456/299 
f 362/535/362 302/458/302 363/536/363 
f 338/499/338 321/481/321 320/480/320 
f 298/451/298 334/495/334 308/464/308 
f 303/457/303 363/536/363 302/458/302 
f 362/534/362 338/499/338 300/453/300 
f 338/499/338 364/537/364 321/481/321 
f 321/481/321 363/538/363 365/539/365 
f 253/378/253 295/448/295 332/493/332 
f 366/540/366 303/457/303 328/489/328 
f 347/510/347 316/474/316 315/473/315 
f 367/541/367 347/510/347 315/473/315 
f 368/542/368 345/508/345 312/470/312 
f 369/543/369 304/460/304 335/496/335 
f 294/447/294 239/343/239 218/312/218 
f 330/491/330 305/461/305 336/497/336 
f 330/544/330 336/527/336 361/533/361 
f 370/545/370 360/546/360 348/512/348 
f 370/545/370 359/547/359 358/548/358 
f 371/549/371 372/550/372 366/540/366 
f 366/540/366 373/551/373 371/549/371 
f 361/533/361 344/507/344 330/544/330 
f 216/310/216 322/482/322 374/552/374 
f 322/553/322 375/554/375 374/555/374 
f 355/556/355 376/557/376 353/558/353 
f 377/559/377 218/312/218 243/353/243 
f 300/453/300 338/499/338 378/560/378 
f 243/350/243 216/310/216 377/561/377 
f 336/527/336 376/562/376 355/524/355 
f 296/449/296 294/447/294 340/501/340 
f 341/502/341 366/540/366 369/543/369 
f 303/457/303 366/540/366 341/502/341 
f 246/358/246 171/251/171 225/325/225 
f 323/511/323 348/512/348 324/563/324 
f 343/505/343 231/333/231 332/493/332 
f 175/255/175 194/383/194 379/564/379 
f 362/534/362 380/565/380 364/566/364 
f 359/529/359 351/519/351 379/564/379 
f 342/531/342 351/519/351 359/529/359 
f 381/567/381 252/377/252 246/358/246 
f 315/473/315 326/568/326 367/541/367 
f 367/541/367 326/569/326 368/570/368 
f 375/554/375 377/559/377 374/555/374 
f 354/523/354 298/451/298 297/450/297 
f 372/550/372 357/526/357 327/488/327 
f 325/485/325 368/542/368 326/486/326 
f 320/480/320 216/310/216 342/503/342 
f 338/499/338 339/500/339 352/521/352 
f 361/533/361 337/498/337 344/507/344 
f 345/508/345 368/542/368 325/485/325 
f 345/508/345 313/471/313 312/470/312 
f 331/492/331 343/505/343 332/493/332 
f 337/498/337 356/525/356 316/487/316 
f 324/484/324 246/358/246 225/325/225 
f 216/310/216 188/282/188 247/520/247 
f 334/495/334 309/465/309 308/464/308 
f 382/571/382 299/452/299 298/451/298 
f 301/454/301 299/456/299 383/572/383 
f 303/457/303 301/459/301 329/490/329 
f 327/488/327 369/543/369 372/550/372 
f 343/505/343 384/573/384 231/333/231 
f 327/488/327 310/467/310 306/462/306 
f 381/567/381 379/574/379 194/279/194 
f 324/484/324 385/575/385 381/567/381 
f 318/476/318 361/533/361 325/485/325 
f 382/571/382 383/576/383 299/452/299 
f 325/485/325 346/509/346 345/508/345 
f 216/310/216 320/480/320 322/482/322 
f 321/481/321 365/539/365 322/482/322 
f 380/577/380 321/481/321 364/537/364 
f 335/496/335 341/502/341 369/543/369 
f 364/566/364 338/499/338 362/534/362 
f 327/488/327 304/460/304 369/543/369 
f 362/535/362 363/536/363 380/578/380 
f 252/377/252 222/317/222 246/358/246 
f 297/450/297 300/453/300 386/579/386 
f 359/529/359 379/564/379 360/530/360 
f 386/579/386 319/479/319 311/469/311 
f 377/561/377 216/310/216 374/552/374 
f 307/468/307 357/526/357 387/580/387 
f 388/581/388 375/554/375 365/582/365 
f 388/581/388 341/502/341 294/447/294 
f 375/554/375 388/581/388 294/447/294 
f 298/451/298 333/494/333 334/495/334 
f 386/579/386 311/469/311 354/523/354 
f 337/498/337 316/487/316 245/356/245 
f 300/453/300 378/560/378 314/472/314 
f 370/545/370 367/541/367 312/583/312 
f 218/312/218 389/584/389 294/447/294 
f 186/268/186 316/474/316 347/510/347 
f 325/485/325 361/533/361 336/527/336 
f 353/558/353 336/497/336 306/462/306 
f 175/255/175 351/519/351 247/360/247 
f 342/531/342 359/529/359 339/585/339 
f 369/543/369 366/540/366 372/550/372 
f 328/489/328 373/551/373 366/540/366 
f 253/378/253 239/343/239 293/446/293 
f 375/554/375 389/584/389 218/312/218 
f 246/358/246 172/252/172 171/251/171 
f 339/586/339 359/547/359 352/587/352 
f 352/521/352 314/472/314 378/560/378 
f 379/564/379 385/588/385 360/530/360 
f 358/548/358 360/546/360 370/545/370 
f 348/512/348 385/589/385 324/563/324 
f 388/581/388 365/582/365 363/536/363 
f 363/536/363 303/457/303 388/581/388 
f 303/457/303 341/502/341 388/581/388 
f 351/519/351 175/255/175 379/564/379 
f 312/583/312 359/547/359 370/545/370 
f 300/453/300 319/479/319 386/579/386 
f 378/560/378 338/499/338 352/521/352 
f 251/373/251 252/377/252 381/567/381 
f 307/590/307 382/571/382 308/591/308 
f 296/449/296 340/501/340 335/496/335 
f 360/546/360 385/589/385 348/512/348 
f 331/492/331 330/491/330 343/505/343 
f 359/547/359 312/583/312 352/587/352 
f 390/592/390 309/465/309 353/522/353 
f 312/583/312 367/541/367 368/570/368 
f 353/522/353 346/509/346 355/524/355 
f 376/557/376 336/497/336 353/558/353 
f 232/334/232 384/573/384 237/504/237 
f 310/467/310 390/593/390 353/558/353 
f 218/312/218 377/559/377 375/554/375 
f 344/506/344 343/505/343 330/491/330 
f 380/577/380 363/538/363 321/481/321 
f 353/558/353 306/462/306 310/467/310 
f 251/373/251 381/567/381 194/279/194 
f 246/358/246 324/484/324 381/567/381 
f 371/549/371 391/594/391 372/550/372 
f 390/593/390 310/467/310 309/466/309 
f 348/512/348 367/541/367 370/545/370 
f 297/450/297 386/579/386 354/523/354 
f 389/584/389 375/554/375 294/447/294 
f 171/251/171 170/250/170 225/325/225 
f 293/446/293 295/448/295 253/378/253 
f 317/478/317 337/498/337 318/476/318 
f 373/551/373 391/594/391 371/549/371 
f 340/501/340 294/447/294 341/502/341 
f 381/567/381 385/575/385 379/595/379 
f 383/596/383 329/490/329 301/459/301 
f 343/505/343 237/504/237 384/573/384 
f 372/550/372 391/594/391 357/526/357 
f 347/510/347 367/541/367 348/512/348 
f 375/554/375 322/597/322 365/582/365 
f 337/498/337 157/237/157 237/339/237 
f 332/493/332 231/333/231 253/378/253 
f 231/333/231 384/573/384 232/334/232 
f 392/598/392 393/599/393 394/600/394 
f 395/601/395 396/602/396 393/599/393 
f 397/603/397 398/604/398 399/605/399 
f 398/604/398 400/606/400 399/605/399 
f 398/607/398 401/608/401 402/609/402 
f 393/599/393 396/602/396 394/600/394 
f 402/609/402 401/608/401 395/601/395 
f 393/599/393 392/598/392 403/610/403 
f 403/610/403 395/601/395 393/599/393 
f 401/611/401 404/612/404 405/613/405 
f 399/605/399 406/614/406 397/603/397 
f 403/610/403 400/615/400 398/607/398 
f 405/613/405 404/612/404 397/603/397 
f 401/608/401 396/602/396 395/601/395 
f 394/616/394 396/617/396 406/614/406 
f 402/609/402 395/601/395 403/610/403 
f 396/617/396 401/611/401 407/618/407 
f 399/619/399 400/615/400 403/610/403 
f 407/618/407 401/611/401 405/613/405 
f 399/619/399 403/610/403 392/598/392 
f 392/598/392 394/600/394 399/619/399 
f 398/607/398 402/609/402 403/610/403 
f 399/605/399 394/616/394 406/614/406 
f 401/611/401 398/604/398 404/612/404 
f 406/614/406 405/613/405 397/603/397 
f 407/618/407 405/613/405 406/614/406 
f 396/617/396 407/618/407 406/614/406 
f 398/604/398 397/603/397 404/612/404 
f 127/205/127 137/210/137 408/620/408 
f 127/197/127 408/621/408 138/211/138 
f 135/208/135 408/620/408 141/216/141 
f 138/211/138 408/621/408 409/622/409 
f 408/621/408 142/217/142 409/622/409 
f 142/218/142 408/620/408 135/208/135 
f 141/216/141 137/210/137 133/206/133 
f 139/212/139 409/622/409 142/217/142 
f 141/216/141 408/620/408 137/210/137 
f 138/211/138 409/622/409 139/212/139 
f 143/220/143 150/228/150 289/437/289 
f 292/442/292 289/437/289 150/228/150 
f 143/220/143 289/437/289 288/436/288 
f 143/231/143 288/439/288 153/232/153 
f 328/489/328 329/490/329 410/623/410 
f 357/526/357 391/594/391 411/624/411 
f 411/624/411 391/594/391 412/625/412 
f 298/451/298 308/591/308 382/571/382 
f 373/551/373 410/626/410 412/625/412 
f 373/551/373 412/625/412 391/594/391 
f 410/626/410 387/627/387 413/628/413 
f 410/623/410 373/551/373 328/489/328 
f 387/580/387 357/526/357 411/624/411 
f 413/628/413 412/625/412 410/626/410 
f 410/626/410 329/629/329 387/627/387 
f 387/580/387 414/630/414 307/468/307 
f 387/580/387 411/624/411 413/628/413 
f 413/628/413 411/624/411 412/625/412 
f 414/631/414 387/627/387 382/632/382 
f 387/627/387 383/633/383 382/632/382 
f 382/634/382 307/468/307 414/630/414 
f 329/629/329 383/633/383 387/627/387 
f 259/397/259 258/396/258 257/406/257 
f 261/399/261 415/635/415 263/401/263 
f 255/393/255 416/636/416 261/399/261 
f 262/400/262 263/401/263 266/637/266 
f 416/636/416 257/395/257 417/638/417 
f 416/636/416 415/635/415 261/399/261 
f 255/393/255 257/395/257 416/636/416 
f 258/396/258 418/639/418 417/640/417 
f 415/635/415 419/641/419 420/642/420 
f 420/642/420 419/641/419 417/638/417 
f 258/396/258 264/403/264 418/639/418 
f 415/635/415 420/642/420 266/637/266 
f 266/407/266 418/639/418 264/403/264 
f 416/636/416 419/641/419 415/635/415 
f 417/638/417 419/641/419 416/636/416 
f 257/406/257 258/396/258 417/640/417 
f 417/640/417 418/639/418 420/643/420 
f 418/639/418 266/407/266 420/643/420 
f 266/407/266 264/403/264 265/404/265 
f 266/637/266 263/401/263 415/635/415 
# 0 polygons - 816 triangles

